<?xml version="1.0" encoding="utf-8"?>
<!-- Generator: Adobe Illustrator 27.5.0, SVG Export Plug-In . SVG Version: 6.00 Build 0)  -->
<svg version="1.1" xmlns="http://www.w3.org/2000/svg" xmlns:xlink="http://www.w3.org/1999/xlink" x="0px" y="0px"
	 viewBox="0 0 800 800" style="enable-background:new 0 0 800 800;" xml:space="preserve">
<g id="Background">
	<rect id="XMLID_70_" y="0" style="fill:#F2F9F9;" width="800" height="800"/>
</g>
<g id="Objects">
	<g id="XMLID_630_">
		<g id="XMLID_1231_">
			<path id="XMLID_1256_" style="fill:#2F2F2F;" d="M286.024,783.285v-0.256c-0.349,0.398-0.692,0.723-1.031,0.973
				c-0.338,0.25-0.706,0.441-1.102,0.57c-0.395,0.131-0.827,0.195-1.296,0.195c-0.621,0-1.196-0.131-1.725-0.395
				c-0.528-0.262-0.986-0.639-1.372-1.125c-0.387-0.488-0.68-1.06-0.879-1.719c-0.199-0.66-0.299-1.371-0.299-2.137
				c0-1.621,0.396-2.887,1.188-3.791s1.833-1.358,3.125-1.358c0.747,0,1.377,0.129,1.89,0.383c0.513,0.258,1.013,0.652,1.501,1.183
				v-3.828c0-0.531,0.105-0.934,0.318-1.205c0.211-0.273,0.514-0.408,0.907-0.408c0.393,0,0.694,0.125,0.907,0.375
				s0.318,0.617,0.318,1.106v11.436c0,0.494-0.113,0.865-0.342,1.111c-0.228,0.246-0.522,0.371-0.883,0.371
				c-0.354,0-0.647-0.129-0.879-0.385C286.139,784.125,286.024,783.76,286.024,783.285z M280.923,779.477
				c0,0.703,0.109,1.301,0.328,1.795c0.219,0.494,0.518,0.867,0.897,1.115c0.38,0.252,0.795,0.377,1.244,0.377
				c0.456,0,0.872-0.119,1.25-0.357c0.376-0.236,0.677-0.602,0.902-1.09c0.225-0.492,0.337-1.106,0.337-1.84
				c0-0.69-0.112-1.283-0.337-1.781c-0.225-0.496-0.528-0.877-0.912-1.141c-0.383-0.262-0.803-0.393-1.258-0.393
				c-0.475,0-0.899,0.135-1.273,0.404c-0.374,0.268-0.663,0.654-0.869,1.158C281.026,778.229,280.923,778.813,280.923,779.477z"/>
			<path id="XMLID_1253_" style="fill:#2F2F2F;" d="M297.457,780.133h-5.071c0.006,0.588,0.124,1.107,0.357,1.557
				c0.23,0.451,0.538,0.789,0.921,1.017c0.383,0.229,0.806,0.34,1.268,0.34c0.31,0,0.593-0.035,0.85-0.107
				c0.257-0.074,0.505-0.186,0.746-0.342c0.241-0.154,0.462-0.322,0.665-0.5c0.202-0.178,0.464-0.418,0.788-0.723
				c0.133-0.113,0.323-0.17,0.571-0.17c0.266,0,0.48,0.074,0.645,0.219c0.165,0.146,0.248,0.352,0.248,0.617
				c0,0.234-0.093,0.508-0.275,0.822c-0.185,0.313-0.462,0.613-0.832,0.902c-0.372,0.287-0.835,0.525-1.397,0.717
				c-0.559,0.189-1.204,0.285-1.933,0.285c-1.664,0-2.96-0.477-3.884-1.426c-0.924-0.949-1.386-2.238-1.386-3.865
				c0-0.766,0.113-1.477,0.341-2.131c0.228-0.656,0.561-1.219,0.997-1.688c0.437-0.469,0.975-0.826,1.615-1.078
				c0.639-0.25,1.349-0.373,2.128-0.373c1.013,0,1.882,0.211,2.606,0.641c0.726,0.426,1.27,0.978,1.63,1.656
				c0.36,0.678,0.542,1.369,0.542,2.07c0,0.652-0.187,1.074-0.56,1.27C298.662,780.035,298.136,780.133,297.457,780.133z
				 M292.386,778.66h4.702c-0.063-0.887-0.303-1.551-0.717-1.99c-0.415-0.439-0.96-0.66-1.638-0.66c-0.646,0-1.177,0.223-1.591,0.67
				C292.727,777.125,292.476,777.787,292.386,778.66z"/>
			<path id="XMLID_1251_" style="fill:#2F2F2F;" d="M309.272,781.375c0,0.717-0.173,1.33-0.522,1.84
				c-0.348,0.51-0.862,0.897-1.544,1.158c-0.68,0.264-1.508,0.395-2.483,0.395c-0.931,0-1.728-0.143-2.393-0.428
				c-0.665-0.285-1.156-0.642-1.472-1.068c-0.317-0.428-0.475-0.855-0.475-1.287c0-0.285,0.101-0.529,0.304-0.73
				c0.202-0.203,0.459-0.305,0.769-0.305c0.272,0,0.48,0.066,0.626,0.199c0.146,0.133,0.286,0.32,0.418,0.561
				c0.266,0.463,0.585,0.807,0.956,1.035c0.37,0.229,0.874,0.342,1.515,0.342c0.519,0,0.945-0.115,1.277-0.346
				c0.332-0.232,0.498-0.496,0.498-0.795c0-0.455-0.172-0.787-0.518-0.996c-0.345-0.209-0.914-0.408-1.705-0.6
				c-0.893-0.221-1.619-0.453-2.18-0.697c-0.561-0.242-1.008-0.564-1.344-0.963c-0.335-0.4-0.503-0.891-0.503-1.473
				c0-0.519,0.155-1.01,0.465-1.473c0.311-0.461,0.768-0.83,1.374-1.105c0.604-0.277,1.333-0.414,2.188-0.414
				c0.671,0,1.275,0.068,1.809,0.209c0.536,0.139,0.983,0.326,1.34,0.56c0.358,0.234,0.63,0.494,0.816,0.777
				c0.186,0.285,0.28,0.564,0.28,0.838c0,0.297-0.1,0.541-0.298,0.73c-0.199,0.19-0.482,0.285-0.851,0.285
				c-0.266,0-0.492-0.076-0.679-0.229c-0.186-0.152-0.4-0.379-0.641-0.684c-0.196-0.252-0.426-0.455-0.693-0.607
				c-0.266-0.152-0.627-0.229-1.083-0.229c-0.469,0-0.857,0.1-1.168,0.301c-0.31,0.197-0.465,0.445-0.465,0.744
				c0,0.273,0.114,0.496,0.341,0.67c0.229,0.174,0.535,0.318,0.922,0.432c0.386,0.113,0.917,0.252,1.596,0.418
				c0.803,0.197,1.46,0.432,1.97,0.703c0.509,0.272,0.896,0.594,1.16,0.965C309.142,780.479,309.272,780.9,309.272,781.375z"/>
			<path id="XMLID_1248_" style="fill:#2F2F2F;" d="M311.921,773.019c-0.361,0-0.669-0.111-0.926-0.334
				c-0.256-0.221-0.385-0.533-0.385-0.939c0-0.369,0.131-0.67,0.394-0.908s0.569-0.355,0.917-0.355c0.336,0,0.633,0.107,0.893,0.322
				c0.26,0.217,0.39,0.529,0.39,0.941c0,0.398-0.127,0.711-0.381,0.935C312.57,772.906,312.27,773.019,311.921,773.019z
				 M313.204,775.697v7.492c0,0.519-0.124,0.914-0.371,1.18c-0.248,0.266-0.56,0.398-0.94,0.398c-0.38,0-0.689-0.137-0.926-0.408
				c-0.238-0.273-0.356-0.662-0.356-1.17v-7.418c0-0.512,0.118-0.898,0.356-1.158c0.237-0.26,0.546-0.389,0.926-0.389
				c0.38,0,0.693,0.129,0.94,0.389C313.081,774.873,313.204,775.234,313.204,775.697z"/>
			<path id="XMLID_1245_" style="fill:#2F2F2F;" d="M324.563,776.125v7.531c0,0.861-0.093,1.602-0.277,2.223
				c-0.182,0.619-0.477,1.133-0.883,1.539c-0.405,0.404-0.935,0.705-1.59,0.9c-0.655,0.197-1.471,0.295-2.446,0.295
				c-0.893,0-1.69-0.125-2.394-0.375c-0.702-0.25-1.243-0.572-1.624-0.969c-0.379-0.394-0.57-0.803-0.57-1.221
				c0-0.316,0.108-0.574,0.324-0.773c0.215-0.199,0.475-0.299,0.778-0.299c0.38,0,0.712,0.168,0.997,0.502
				c0.139,0.172,0.283,0.346,0.432,0.519c0.149,0.174,0.314,0.322,0.494,0.447c0.181,0.121,0.397,0.213,0.65,0.273
				c0.253,0.058,0.545,0.09,0.874,0.09c0.671,0,1.192-0.092,1.563-0.279s0.63-0.449,0.779-0.785
				c0.149-0.334,0.236-0.693,0.261-1.076c0.025-0.385,0.044-1,0.057-1.85c-0.399,0.559-0.859,0.984-1.382,1.275
				c-0.522,0.291-1.145,0.435-1.866,0.435c-0.868,0-1.626-0.221-2.275-0.664c-0.648-0.443-1.147-1.064-1.495-1.861
				c-0.349-0.799-0.522-1.719-0.522-2.764c0-0.779,0.105-1.482,0.317-2.109c0.213-0.627,0.515-1.156,0.907-1.586
				c0.392-0.432,0.845-0.756,1.358-0.975c0.513-0.217,1.076-0.326,1.691-0.326c0.734,0,1.371,0.141,1.909,0.422
				c0.538,0.283,1.038,0.725,1.5,1.326v-0.354c0-0.449,0.11-0.797,0.332-1.045c0.222-0.246,0.507-0.369,0.855-0.369
				c0.5,0,0.832,0.164,0.996,0.488C324.48,775.039,324.563,775.51,324.563,776.125z M317.05,779.41c0,1.051,0.229,1.846,0.688,2.385
				c0.459,0.539,1.053,0.807,1.781,0.807c0.43,0,0.837-0.115,1.22-0.346c0.384-0.233,0.695-0.58,0.936-1.045
				c0.24-0.467,0.361-1.031,0.361-1.695c0-1.057-0.232-1.881-0.698-2.469c-0.466-0.59-1.078-0.885-1.838-0.885
				c-0.741,0-1.334,0.283-1.78,0.846C317.272,777.57,317.05,778.373,317.05,779.41z"/>
			<path id="XMLID_1243_" style="fill:#2F2F2F;" d="M328.684,775.658v0.315c0.455-0.602,0.954-1.043,1.496-1.326
				c0.542-0.281,1.163-0.422,1.866-0.422c0.684,0,1.295,0.148,1.834,0.447c0.538,0.297,0.941,0.719,1.206,1.262
				c0.172,0.316,0.282,0.66,0.332,1.025c0.051,0.369,0.077,0.836,0.077,1.406v4.824c0,0.519-0.119,0.914-0.357,1.18
				c-0.237,0.266-0.546,0.398-0.926,0.398c-0.387,0-0.7-0.137-0.94-0.408c-0.241-0.273-0.361-0.662-0.361-1.17v-4.32
				c0-0.855-0.119-1.51-0.357-1.961c-0.238-0.453-0.71-0.68-1.42-0.68c-0.461,0-0.883,0.137-1.263,0.412
				c-0.38,0.277-0.659,0.656-0.836,1.137c-0.126,0.387-0.19,1.108-0.19,2.164v3.248c0,0.525-0.122,0.922-0.365,1.183
				c-0.244,0.264-0.559,0.395-0.945,0.395c-0.375,0-0.681-0.137-0.922-0.408c-0.24-0.273-0.361-0.662-0.361-1.17v-7.492
				c0-0.494,0.107-0.863,0.323-1.108c0.215-0.244,0.51-0.365,0.883-0.365c0.229,0,0.435,0.053,0.619,0.162
				c0.183,0.107,0.33,0.27,0.441,0.482C328.628,775.086,328.684,775.35,328.684,775.658z"/>
			<path id="XMLID_1240_" style="fill:#2F2F2F;" d="M344.458,780.133h-5.071c0.007,0.588,0.125,1.107,0.357,1.557
				c0.231,0.451,0.538,0.789,0.921,1.017c0.382,0.229,0.805,0.34,1.267,0.34c0.311,0,0.594-0.035,0.851-0.107
				c0.255-0.074,0.504-0.186,0.746-0.342c0.24-0.154,0.461-0.322,0.665-0.5c0.202-0.178,0.464-0.418,0.788-0.723
				c0.133-0.113,0.323-0.17,0.57-0.17c0.266,0,0.481,0.074,0.646,0.219c0.165,0.146,0.247,0.352,0.247,0.617
				c0,0.234-0.091,0.508-0.275,0.822c-0.184,0.313-0.461,0.613-0.832,0.902c-0.371,0.287-0.835,0.525-1.396,0.717
				c-0.56,0.189-1.205,0.285-1.933,0.285c-1.665,0-2.96-0.477-3.885-1.426c-0.923-0.949-1.386-2.238-1.386-3.865
				c0-0.766,0.114-1.477,0.342-2.131c0.228-0.656,0.561-1.219,0.998-1.688c0.436-0.469,0.975-0.826,1.614-1.078
				c0.639-0.25,1.349-0.373,2.128-0.373c1.013,0,1.881,0.211,2.606,0.641c0.726,0.426,1.269,0.978,1.63,1.656
				c0.36,0.678,0.542,1.369,0.542,2.07c0,0.652-0.187,1.074-0.561,1.27C345.662,780.035,345.136,780.133,344.458,780.133z
				 M339.387,778.66h4.701c-0.063-0.887-0.302-1.551-0.717-1.99c-0.415-0.439-0.961-0.66-1.638-0.66
				c-0.646,0-1.177,0.223-1.592,0.67C339.726,777.125,339.476,777.787,339.387,778.66z"/>
			<path id="XMLID_1237_" style="fill:#2F2F2F;" d="M355.028,783.285v-0.256c-0.348,0.398-0.691,0.723-1.03,0.973
				c-0.339,0.25-0.706,0.441-1.102,0.57c-0.395,0.131-0.828,0.195-1.296,0.195c-0.622,0-1.196-0.131-1.724-0.395
				c-0.529-0.262-0.986-0.639-1.373-1.125c-0.387-0.488-0.679-1.06-0.878-1.719c-0.2-0.66-0.299-1.371-0.299-2.137
				c0-1.621,0.396-2.887,1.187-3.791s1.833-1.358,3.125-1.358c0.747,0,1.377,0.129,1.89,0.383c0.513,0.258,1.013,0.652,1.5,1.183
				v-3.828c0-0.531,0.106-0.934,0.319-1.205c0.211-0.273,0.515-0.408,0.907-0.408c0.392,0,0.694,0.125,0.907,0.375
				c0.212,0.25,0.318,0.617,0.318,1.106v11.436c0,0.494-0.114,0.865-0.342,1.111c-0.228,0.246-0.522,0.371-0.883,0.371
				c-0.355,0-0.648-0.129-0.879-0.385C355.144,784.125,355.028,783.76,355.028,783.285z M349.928,779.477
				c0,0.703,0.108,1.301,0.327,1.795c0.218,0.494,0.517,0.867,0.898,1.115c0.379,0.252,0.794,0.377,1.243,0.377
				c0.456,0,0.873-0.119,1.249-0.357c0.377-0.236,0.678-0.602,0.902-1.09c0.225-0.492,0.337-1.106,0.337-1.84
				c0-0.69-0.112-1.283-0.337-1.781c-0.224-0.496-0.528-0.877-0.912-1.141c-0.384-0.262-0.803-0.393-1.259-0.393
				c-0.474,0-0.899,0.135-1.272,0.404c-0.373,0.268-0.663,0.654-0.869,1.158C350.03,778.229,349.928,778.813,349.928,779.477z"/>
			<path id="XMLID_1234_" style="fill:#2F2F2F;" d="M365.626,771.85v3.961c0.487-0.506,0.984-0.894,1.491-1.164
				c0.506-0.268,1.134-0.402,1.881-0.402c0.861,0,1.616,0.203,2.266,0.611c0.648,0.41,1.151,1.002,1.51,1.777
				c0.358,0.773,0.537,1.695,0.537,2.76c0,0.785-0.1,1.504-0.299,2.16c-0.2,0.654-0.49,1.223-0.869,1.703
				c-0.38,0.482-0.841,0.855-1.382,1.117c-0.542,0.264-1.139,0.395-1.791,0.395c-0.399,0-0.775-0.047-1.126-0.143
				c-0.352-0.096-0.651-0.219-0.898-0.375c-0.246-0.154-0.457-0.315-0.631-0.481c-0.174-0.164-0.404-0.412-0.689-0.74v0.256
				c0,0.488-0.117,0.857-0.352,1.107c-0.233,0.25-0.531,0.375-0.893,0.375c-0.367,0-0.66-0.125-0.878-0.375
				c-0.219-0.25-0.328-0.619-0.328-1.107v-11.322c0-0.525,0.106-0.922,0.317-1.191c0.212-0.268,0.509-0.402,0.889-0.402
				c0.399,0,0.706,0.127,0.921,0.383C365.518,771.01,365.626,771.375,365.626,771.85z M365.749,779.553
				c0,1.033,0.236,1.824,0.708,2.379c0.472,0.555,1.091,0.832,1.857,0.832c0.652,0,1.214-0.283,1.685-0.85
				c0.472-0.568,0.708-1.379,0.708-2.438c0-0.684-0.097-1.273-0.294-1.766c-0.197-0.494-0.475-0.877-0.836-1.144
				c-0.361-0.27-0.783-0.404-1.264-0.404c-0.494,0-0.935,0.135-1.32,0.404c-0.386,0.268-0.69,0.658-0.912,1.168
				C365.86,778.242,365.749,778.85,365.749,779.553z"/>
			<path id="XMLID_1232_" style="fill:#2F2F2F;" d="M376.672,785.09l0.237-0.58l-3.191-8.035c-0.196-0.461-0.295-0.797-0.295-1.006
				c0-0.223,0.058-0.428,0.171-0.617c0.114-0.19,0.271-0.342,0.47-0.455c0.2-0.115,0.407-0.172,0.622-0.172
				c0.373,0,0.655,0.119,0.846,0.355c0.19,0.238,0.357,0.578,0.503,1.022l2.194,6.383l2.08-5.938
				c0.164-0.478,0.313-0.857,0.446-1.129c0.133-0.274,0.273-0.457,0.422-0.551c0.148-0.096,0.359-0.143,0.632-0.143
				c0.197,0,0.385,0.051,0.565,0.156c0.18,0.105,0.319,0.246,0.418,0.424c0.098,0.176,0.148,0.363,0.148,0.559
				c-0.026,0.121-0.066,0.291-0.124,0.514c-0.058,0.221-0.126,0.447-0.208,0.674l-3.381,8.854c-0.292,0.777-0.577,1.389-0.855,1.832
				c-0.279,0.443-0.647,0.785-1.107,1.021c-0.459,0.238-1.078,0.355-1.857,0.355c-0.759,0-1.33-0.082-1.709-0.246
				c-0.381-0.166-0.57-0.467-0.57-0.902c0-0.297,0.089-0.527,0.271-0.689c0.18-0.16,0.448-0.242,0.801-0.242
				c0.14,0,0.276,0.019,0.409,0.059c0.165,0.037,0.307,0.057,0.427,0.057c0.297,0,0.532-0.045,0.704-0.135
				c0.17-0.088,0.324-0.24,0.461-0.461C376.337,785.836,376.495,785.514,376.672,785.09z"/>
		</g>
		<g id="XMLID_768_">
			<path id="XMLID_1230_" style="fill:#2F2F2F;" d="M414.234,774.449h0.619v-0.779c0-0.814,0.1-1.457,0.307-1.938
				c0.203-0.479,0.555-0.826,1.047-1.045c0.49-0.217,1.162-0.326,2.016-0.326c1.52,0,2.273,0.367,2.273,1.115
				c0,0.238-0.08,0.443-0.24,0.615c-0.154,0.168-0.344,0.256-0.559,0.256c-0.1,0-0.277-0.02-0.527-0.061
				c-0.236-0.033-0.451-0.055-0.623-0.055c-0.467,0-0.766,0.141-0.904,0.414c-0.127,0.275-0.195,0.67-0.195,1.185v0.617h0.633
				c0.99,0,1.48,0.297,1.48,0.895c0,0.42-0.127,0.691-0.392,0.805c-0.262,0.115-0.623,0.172-1.088,0.172h-0.633v6.871
				c0,0.51-0.121,0.9-0.369,1.168c-0.242,0.272-0.555,0.406-0.943,0.406c-0.367,0-0.67-0.135-0.918-0.406
				c-0.244-0.268-0.363-0.658-0.363-1.168v-6.871h-0.715c-0.389,0-0.682-0.084-0.893-0.262c-0.209-0.172-0.315-0.4-0.315-0.678
				C412.932,774.756,413.365,774.449,414.234,774.449"/>
			<path id="XMLID_1229_" style="fill:#2F2F2F;" d="M422.725,781.023v2.168c0,0.523-0.133,0.918-0.375,1.18
				c-0.246,0.266-0.559,0.395-0.938,0.395c-0.381,0-0.688-0.131-0.926-0.4c-0.236-0.264-0.361-0.656-0.361-1.174v-7.223
				c0-1.166,0.42-1.75,1.262-1.75c0.434,0,0.742,0.135,0.934,0.408c0.19,0.273,0.295,0.674,0.316,1.209
				c0.309-0.535,0.625-0.935,0.949-1.209c0.332-0.273,0.762-0.408,1.309-0.408c0.549,0,1.072,0.135,1.586,0.408
				c0.516,0.273,0.772,0.637,0.772,1.086c0,0.314-0.111,0.58-0.326,0.781c-0.221,0.209-0.455,0.311-0.707,0.311
				c-0.1,0-0.33-0.063-0.691-0.18c-0.365-0.113-0.689-0.172-0.963-0.172c-0.381,0-0.693,0.102-0.932,0.297
				c-0.242,0.205-0.432,0.498-0.564,0.887c-0.129,0.395-0.219,0.865-0.273,1.404C422.746,779.584,422.725,780.244,422.725,781.023"
				/>
			<path id="XMLID_1226_" style="fill:#2F2F2F;" d="M434.645,780.131h-5.074c0.01,0.588,0.125,1.109,0.355,1.559
				c0.234,0.445,0.539,0.785,0.924,1.016c0.385,0.229,0.805,0.34,1.27,0.34c0.311,0,0.592-0.033,0.85-0.111
				c0.254-0.068,0.504-0.186,0.744-0.34c0.242-0.152,0.461-0.318,0.664-0.5c0.203-0.176,0.467-0.416,0.791-0.719
				c0.135-0.113,0.324-0.174,0.568-0.174c0.268,0,0.48,0.074,0.648,0.221c0.166,0.148,0.244,0.352,0.244,0.617
				c0,0.236-0.09,0.508-0.268,0.82c-0.188,0.316-0.463,0.615-0.836,0.906c-0.375,0.285-0.84,0.527-1.398,0.713
				c-0.559,0.191-1.205,0.287-1.932,0.287c-1.67,0-2.963-0.473-3.887-1.422c-0.924-0.953-1.391-2.242-1.391-3.869
				c0-0.766,0.117-1.479,0.348-2.135c0.225-0.658,0.557-1.215,0.998-1.688c0.435-0.471,0.971-0.828,1.613-1.078
				c0.637-0.248,1.346-0.373,2.127-0.373c1.012,0,1.881,0.213,2.607,0.645c0.723,0.424,1.273,0.977,1.629,1.654
				c0.361,0.682,0.541,1.369,0.541,2.074c0,0.648-0.188,1.07-0.561,1.266C435.848,780.033,435.322,780.131,434.645,780.131
				 M429.57,778.656h4.701c-0.062-0.885-0.297-1.551-0.713-1.986c-0.418-0.443-0.959-0.66-1.641-0.66
				c-0.647,0-1.178,0.219-1.592,0.668C429.912,777.125,429.658,777.783,429.57,778.656"/>
			<path id="XMLID_1223_" style="fill:#2F2F2F;" d="M445.432,780.131h-5.072c0.006,0.588,0.125,1.109,0.354,1.559
				c0.232,0.445,0.539,0.785,0.922,1.016c0.383,0.229,0.805,0.34,1.271,0.34c0.307,0,0.592-0.033,0.844-0.111
				c0.26-0.068,0.506-0.186,0.75-0.34c0.242-0.152,0.461-0.318,0.664-0.5c0.199-0.176,0.465-0.416,0.789-0.719
				c0.135-0.113,0.326-0.174,0.568-0.174c0.268,0,0.482,0.074,0.65,0.221c0.164,0.148,0.24,0.352,0.24,0.617
				c0,0.236-0.088,0.508-0.273,0.82c-0.178,0.316-0.455,0.615-0.83,0.906c-0.371,0.285-0.84,0.527-1.397,0.713
				c-0.557,0.191-1.207,0.287-1.934,0.287c-1.668,0-2.959-0.473-3.887-1.422c-0.924-0.953-1.389-2.242-1.389-3.869
				c0-0.766,0.115-1.479,0.348-2.135c0.227-0.658,0.559-1.215,0.996-1.688c0.436-0.471,0.973-0.828,1.613-1.078
				c0.639-0.248,1.352-0.373,2.129-0.373c1.01,0,1.879,0.213,2.613,0.645c0.721,0.424,1.266,0.977,1.621,1.654
				c0.359,0.682,0.545,1.369,0.545,2.074c0,0.648-0.191,1.07-0.561,1.266C446.633,780.033,446.107,780.131,445.432,780.131
				 M440.359,778.656h4.701c-0.064-0.885-0.305-1.551-0.715-1.986c-0.422-0.443-0.963-0.66-1.643-0.66
				c-0.647,0-1.176,0.219-1.594,0.668C440.697,777.125,440.443,777.783,440.359,778.656"/>
			<path id="XMLID_1220_" style="fill:#2F2F2F;" d="M451.111,775.678v0.311c0.486-0.6,0.994-1.041,1.525-1.324
				c0.518-0.283,1.117-0.426,1.781-0.426c0.795,0,1.535,0.207,2.207,0.617c0.672,0.414,1.199,1.016,1.59,1.807
				c0.389,0.795,0.586,1.729,0.586,2.813c0,0.797-0.113,1.531-0.336,2.201c-0.225,0.668-0.537,1.227-0.93,1.68
				c-0.393,0.451-0.855,0.803-1.389,1.047c-0.543,0.24-1.111,0.363-1.728,0.363c-0.738,0-1.363-0.148-1.865-0.447
				c-0.502-0.293-0.982-0.734-1.441-1.307v3.893c0,1.137-0.416,1.711-1.244,1.711c-0.49,0-0.809-0.146-0.971-0.439
				c-0.152-0.299-0.234-0.725-0.234-1.291v-11.193c0-0.496,0.107-0.859,0.32-1.107c0.215-0.24,0.512-0.365,0.885-0.365
				c0.369,0,0.666,0.125,0.897,0.375C450.998,774.848,451.111,775.203,451.111,775.678 M456.195,779.445
				c0-0.684-0.105-1.273-0.314-1.762c-0.209-0.492-0.498-0.867-0.865-1.129c-0.367-0.262-0.783-0.396-1.232-0.396
				c-0.715,0-1.318,0.285-1.809,0.844c-0.492,0.566-0.74,1.396-0.74,2.494c0,1.025,0.244,1.832,0.736,2.406
				c0.486,0.572,1.086,0.858,1.813,0.858c0.428,0,0.83-0.125,1.197-0.371c0.371-0.254,0.664-0.627,0.883-1.127
				C456.084,780.76,456.195,780.154,456.195,779.445"/>
			<path id="XMLID_1217_" style="fill:#2F2F2F;" d="M461.412,773.012c-0.363,0-0.67-0.113-0.924-0.334
				c-0.26-0.223-0.387-0.533-0.387-0.938c0-0.367,0.131-0.67,0.396-0.91c0.262-0.234,0.566-0.355,0.914-0.355
				c0.34,0,0.635,0.107,0.893,0.32c0.26,0.219,0.391,0.533,0.391,0.945c0,0.4-0.127,0.711-0.377,0.936
				C462.064,772.898,461.764,773.012,461.412,773.012 M462.695,775.691v7.502c0,0.516-0.123,0.908-0.369,1.172
				c-0.25,0.27-0.561,0.4-0.941,0.4c-0.381,0-0.686-0.135-0.928-0.406c-0.234-0.277-0.355-0.666-0.355-1.166v-7.428
				c0-0.51,0.121-0.895,0.355-1.154c0.242-0.266,0.547-0.393,0.928-0.393c0.381,0,0.691,0.127,0.941,0.393
				C462.572,774.871,462.695,775.232,462.695,775.691"/>
			<path id="XMLID_1191_" style="fill:#2F2F2F;" d="M471.055,783.582l-2.283-3.766l-1.408,1.328v2.065c0,0.5-0.133,0.883-0.396,1.15
				c-0.258,0.272-0.566,0.406-0.906,0.406c-0.398,0-0.715-0.131-0.941-0.4c-0.227-0.264-0.344-0.656-0.344-1.174v-11.064
				c0-0.572,0.115-1.01,0.332-1.313c0.223-0.305,0.545-0.453,0.953-0.453c0.399,0,0.713,0.137,0.949,0.412
				c0.234,0.27,0.353,0.674,0.353,1.201v6.293l2.916-3.063c0.361-0.375,0.633-0.641,0.826-0.777c0.189-0.139,0.42-0.209,0.689-0.209
				c0.326,0,0.594,0.104,0.816,0.308c0.211,0.207,0.32,0.467,0.32,0.773c0,0.379-0.353,0.889-1.055,1.522l-1.377,1.264l2.658,4.182
				c0.193,0.314,0.34,0.545,0.424,0.707c0.084,0.158,0.131,0.318,0.131,0.461c0,0.414-0.115,0.734-0.342,0.977
				c-0.225,0.236-0.523,0.354-0.885,0.354c-0.316,0-0.564-0.082-0.734-0.256C471.582,784.336,471.346,784.025,471.055,783.582"/>
			<path id="XMLID_1190_" style="fill:#2F2F2F;" d="M476.691,784.766c-0.393,0-0.728-0.127-1.014-0.381
				c-0.285-0.25-0.43-0.606-0.43-1.065c0-0.387,0.139-0.719,0.41-0.996c0.275-0.279,0.607-0.418,1.008-0.418
				c0.398,0,0.736,0.139,1.023,0.412c0.279,0.275,0.422,0.611,0.422,1.002c0,0.451-0.143,0.807-0.422,1.059
				C477.402,784.639,477.07,784.766,476.691,784.766"/>
			<path id="XMLID_1189_" style="fill:#2F2F2F;" d="M489.59,781.555c0,0.32-0.098,0.668-0.291,1.035
				c-0.191,0.369-0.488,0.717-0.887,1.049c-0.395,0.332-0.891,0.604-1.494,0.805c-0.602,0.201-1.281,0.307-2.031,0.307
				c-1.605,0-2.857-0.471-3.758-1.402c-0.895-0.936-1.346-2.19-1.346-3.76c0-1.066,0.205-2.006,0.619-2.824
				c0.408-0.814,1.004-1.447,1.781-1.893c0.779-0.449,1.717-0.67,2.795-0.67c0.674,0,1.287,0.098,1.852,0.295
				c0.561,0.195,1.033,0.451,1.426,0.758c0.387,0.315,0.685,0.644,0.889,0.992c0.207,0.352,0.309,0.682,0.309,0.988
				c0,0.307-0.113,0.57-0.344,0.787c-0.234,0.215-0.516,0.324-0.838,0.324c-0.219,0-0.398-0.057-0.541-0.166
				c-0.145-0.113-0.305-0.291-0.478-0.543c-0.318-0.479-0.647-0.842-0.996-1.078c-0.344-0.244-0.781-0.363-1.315-0.363
				c-0.762,0-1.383,0.299-1.853,0.898c-0.467,0.596-0.703,1.42-0.703,2.453c0,0.488,0.063,0.939,0.184,1.348
				c0.117,0.408,0.291,0.756,0.52,1.045c0.23,0.287,0.504,0.504,0.826,0.654c0.324,0.152,0.682,0.225,1.064,0.225
				c0.522,0,0.967-0.119,1.336-0.359c0.377-0.242,0.703-0.607,0.986-1.103c0.158-0.291,0.328-0.518,0.51-0.684
				c0.182-0.162,0.408-0.248,0.676-0.248c0.316,0,0.58,0.123,0.785,0.361C489.482,781.025,489.59,781.285,489.59,781.555"/>
			<path id="XMLID_770_" style="fill:#2F2F2F;" d="M500.779,779.494c0,0.77-0.121,1.484-0.355,2.139
				c-0.246,0.652-0.592,1.213-1.049,1.68c-0.455,0.469-1.002,0.828-1.633,1.08c-0.639,0.246-1.35,0.375-2.139,0.375
				c-0.785,0-1.492-0.129-2.121-0.383c-0.623-0.25-1.17-0.615-1.625-1.082c-0.461-0.477-0.809-1.035-1.053-1.678
				c-0.228-0.643-0.35-1.354-0.35-2.131c0-0.785,0.123-1.506,0.357-2.158c0.242-0.654,0.59-1.211,1.039-1.672
				c0.451-0.463,0.994-0.818,1.631-1.07c0.645-0.25,1.35-0.375,2.121-0.375c0.785,0,1.498,0.125,2.139,0.383
				c0.639,0.25,1.184,0.613,1.645,1.078c0.457,0.475,0.803,1.029,1.039,1.672C500.66,778.004,500.779,778.713,500.779,779.494
				 M498.176,779.494c0-1.059-0.234-1.881-0.697-2.469c-0.463-0.596-1.09-0.887-1.875-0.887c-0.508,0-0.955,0.131-1.342,0.393
				c-0.387,0.262-0.682,0.65-0.891,1.164c-0.209,0.514-0.315,1.113-0.315,1.799c0,0.68,0.102,1.268,0.309,1.773
				c0.209,0.512,0.502,0.898,0.887,1.166c0.385,0.268,0.834,0.404,1.351,0.404c0.785,0,1.412-0.295,1.875-0.891
				C497.941,781.356,498.176,780.535,498.176,779.494"/>
			<path id="XMLID_769_" style="fill:#2F2F2F;" d="M510.672,779.685v3.445c0,0.547-0.121,0.951-0.369,1.228
				c-0.25,0.272-0.572,0.408-0.978,0.408c-0.393,0-0.713-0.137-0.951-0.408c-0.246-0.277-0.371-0.682-0.371-1.228V779
				c0-0.652-0.022-1.162-0.065-1.523c-0.045-0.354-0.168-0.656-0.361-0.883c-0.197-0.236-0.51-0.352-0.932-0.352
				c-0.85,0-1.406,0.289-1.676,0.881c-0.268,0.576-0.406,1.412-0.406,2.506v3.502c0,0.539-0.123,0.947-0.361,1.225
				c-0.25,0.273-0.568,0.412-0.965,0.412c-0.397,0-0.717-0.139-0.967-0.412c-0.252-0.277-0.377-0.686-0.377-1.225v-7.418
				c0-0.49,0.111-0.861,0.336-1.111c0.229-0.258,0.525-0.383,0.889-0.383c0.357,0,0.652,0.123,0.893,0.355
				c0.236,0.238,0.353,0.566,0.353,0.984v0.246c0.453-0.535,0.936-0.932,1.445-1.182c0.516-0.26,1.082-0.385,1.713-0.385
				c0.65,0,1.211,0.131,1.678,0.389c0.469,0.262,0.853,0.656,1.16,1.178c0.439-0.529,0.908-0.924,1.41-1.182
				c0.5-0.256,1.053-0.385,1.662-0.385c0.705,0,1.32,0.143,1.834,0.418c0.51,0.279,0.893,0.68,1.147,1.195
				c0.221,0.473,0.33,1.211,0.33,2.217v5.063c0,0.547-0.121,0.951-0.367,1.228c-0.246,0.272-0.574,0.408-0.979,0.408
				c-0.394,0-0.715-0.139-0.965-0.412c-0.25-0.277-0.377-0.686-0.377-1.225v-4.361c0-0.559-0.023-1.002-0.068-1.338
				c-0.047-0.336-0.178-0.619-0.383-0.846c-0.213-0.228-0.531-0.344-0.953-0.344c-0.342,0-0.666,0.106-0.975,0.307
				c-0.307,0.199-0.547,0.477-0.721,0.813C510.77,777.801,510.672,778.574,510.672,779.685"/>
		</g>
		<g id="XMLID_631_">
			<path id="XMLID_764_" style="fill:#2F2F2F;" d="M389.967,778.867c-0.002-0.006-0.002-0.01-0.002-0.018
				C389.965,778.857,389.965,778.861,389.967,778.867z"/>
			<path id="XMLID_752_" style="fill:#2F2F2F;" d="M390.098,779.695c0.002,0,0.002,0,0.003,0c-0.05-0.236-0.088-0.471-0.119-0.701
				C390.012,779.227,390.051,779.463,390.098,779.695z"/>
			<path id="XMLID_748_" style="fill:#2F2F2F;" d="M390.956,782.102c-0.006-0.01-0.011-0.022-0.017-0.033
				C390.945,782.08,390.95,782.092,390.956,782.102z"/>
			<path id="XMLID_747_" style="fill:#2F2F2F;" d="M390.874,781.941c-0.022-0.043-0.044-0.09-0.065-0.133
				C390.83,781.856,390.852,781.898,390.874,781.941z"/>
			<path id="XMLID_741_" style="fill:#2F2F2F;" d="M390.339,780.623c0.127,0.4,0.28,0.787,0.457,1.158
				c-0.18-0.379-0.33-0.768-0.454-1.158C390.341,780.623,390.34,780.623,390.339,780.623z"/>
			<path id="XMLID_740_" style="fill:#2F2F2F;" d="M400.004,768.93c0.502,0,0.871,0.041,1.295,0.111l0.121-0.762
				c0,0-1.172-0.361-2.711-0.234l-0.121-0.416c0.478-0.1,0.838-0.525,0.838-1.033c0-0.582-0.474-1.055-1.057-1.055
				c-0.583,0-1.056,0.473-1.056,1.055c0,0.508,0.358,0.934,0.836,1.033l0.134,0.463c-1.634,0.225-2.935,0.863-2.935,0.863
				l0.23,0.705c0.989-0.33,1.846-0.529,2.624-0.613C398.964,768.965,399.537,768.93,400.004,768.93z"/>
			<path id="XMLID_734_" style="fill:#2F2F2F;" d="M390.936,772.789l0.006-0.008c0.039-0.051,0.076-0.098,0.113-0.143l-0.313-0.227
				l-0.488-0.356c-0.027,0.037-0.795,0.744-1.401,2.047c-0.025-0.041-0.056-0.08-0.09-0.119c-0.182-0.197-0.436-0.299-0.758-0.293
				c-0.004,0-0.009,0-0.015,0c-0.2,0-0.337-0.066-0.427-0.148c0.089-0.113,0.143-0.256,0.143-0.412c0-0.369-0.3-0.67-0.669-0.67
				c-0.369,0-0.669,0.301-0.669,0.67c0,0.369,0.3,0.668,0.669,0.668c0.058,0,0.113-0.01,0.167-0.02
				c0.164,0.182,0.425,0.342,0.808,0.334c0.197-0.002,0.341,0.049,0.438,0.154c0.111,0.121,0.148,0.297,0.16,0.428
				c-0.001,0.002-0.001,0.006-0.003,0.006c-0.435,1.189-0.311,2.67-0.311,2.67l1.057,0.041c0.022-0.539,0.099-1.482,0.372-2.231
				C390.25,773.732,390.91,772.826,390.936,772.789z"/>
			<path id="XMLID_733_" style="fill:#2F2F2F;" d="M409.203,769.815c-0.367,0-0.668,0.299-0.668,0.668
				c0,0.059,0.008,0.113,0.023,0.166c-0.184,0.166-0.344,0.428-0.338,0.811c0.004,0.197-0.047,0.34-0.154,0.435
				c-0.084,0.076-0.191,0.115-0.295,0.141c-0.787-1.102-1.756-1.775-1.756-1.775l-0.76,0.814c0.574,0.521,1.16,1.174,1.728,1.99
				c0.395,0.563,0.799,1.289,1.137,2.014l1.023-0.486c0,0-0.467-1.154-1.125-2.191c0.113-0.039,0.228-0.102,0.33-0.191
				c0.201-0.182,0.299-0.438,0.293-0.758c-0.002-0.209,0.066-0.35,0.148-0.441c0.115,0.086,0.258,0.142,0.412,0.142
				c0.371,0,0.67-0.301,0.67-0.67C409.873,770.113,409.574,769.815,409.203,769.815z"/>
			<path id="XMLID_636_" style="fill:#2F2F2F;" d="M406.547,779.016c-1.41,0.688-3.728,1.594-6.782,2.02
				c-1.198,0.166-2.359,0.228-3.428,0.228c-1.391,0-2.62-0.103-3.563-0.223c-1.076-0.137-1.917-0.303-2.432-0.418
				c0.124,0.391,0.273,0.779,0.454,1.158c0.003,0.01,0.008,0.019,0.013,0.027c0.021,0.043,0.043,0.09,0.065,0.133
				c0.021,0.045,0.043,0.088,0.065,0.127c0.006,0.012,0.011,0.023,0.017,0.033c0.303,0.57,0.667,1.096,1.081,1.549
				c1.44,1.576,2.907,1.824,2.921,1.826l0.023,0.004l0.022,0.008c0.013,0.004,1.314,0.424,3.291,0.424
				c1.945,0,3.855-0.393,5.673-1.166c1.348-0.69,2.623-1.736,3.254-2.67c0.488-0.723,0.842-1.494,1.051-2.295
				c0.111-0.426,0.199-1.107,0.147-1.824C408.021,778.223,407.395,778.604,406.547,779.016z"/>
			<path id="XMLID_632_" style="fill:#2F2F2F;" d="M391.389,773.123c-0.041,0.059-0.652,0.924-1.135,2.252
				c-0.362,0.996-0.346,2.443-0.346,2.461v0.002c0,0.34,0.019,0.678,0.057,1.012c0,0.008,0,0.012,0.002,0.018
				c0.004,0.043,0.011,0.084,0.015,0.127c0.03,0.231,0.069,0.465,0.119,0.701c0.7,0.178,4.878,1.152,9.548,0.502
				c2.927-0.406,5.15-1.272,6.499-1.926c1.121-0.545,1.842-1.037,2.119-1.238c-0.277-1.029-1.041-2.641-1.742-3.646
				c-2.006-2.865-4.168-3.602-5.277-3.783c-0.424-0.07-0.764-0.109-1.244-0.109c-0.447,0-1.001,0.035-1.743,0.113
				c-0.743,0.078-1.572,0.273-2.532,0.596c-1.348,0.451-2.567,1.16-3.527,2.049l-0.033,0.029
				C392.027,772.412,391.73,772.688,391.389,773.123z M403.658,772.455c0.961,0,1.744,0.781,1.744,1.744
				c0,0.961-0.783,1.744-1.744,1.744c-0.961,0-1.742-0.783-1.742-1.744C401.916,773.236,402.697,772.455,403.658,772.455z
				 M395.417,772.387c1.557,0,2.817,1.262,2.817,2.816c0,1.557-1.26,2.814-2.817,2.814c-1.555,0-2.816-1.258-2.816-2.814
				C392.601,773.648,393.862,772.387,395.417,772.387z"/>
		</g>
	</g>
	<g id="XMLID_1_">
		<g id="XMLID_69_">
			<g id="XMLID_413_">
				
					<ellipse id="XMLID_405_" transform="matrix(0.7071 -0.7071 0.7071 0.7071 -223.482 430.1236)" style="fill:#5FCCDD;stroke:#213738;stroke-miterlimit:10;" cx="407.464" cy="484.828" rx="162.076" ry="162.076"/>
				<g id="XMLID_3_">
					<g id="XMLID_313_">
						<g id="XMLID_359_">
							
								<line id="XMLID_383_" style="fill:none;stroke:#494744;stroke-miterlimit:10;" x1="185.555" y1="273.556" x2="186.616" y2="274.617"/>
							
								<line id="XMLID_382_" style="fill:none;stroke:#494744;stroke-miterlimit:10;stroke-dasharray:2.973,2.973;" x1="188.718" y1="276.719" x2="397.888" y2="485.889"/>
							
								<line id="XMLID_360_" style="fill:none;stroke:#494744;stroke-miterlimit:10;" x1="398.939" y1="486.94" x2="400" y2="488.001"/>
						</g>
					</g>
					<g id="XMLID_273_">
						<g id="XMLID_274_">
							<g id="XMLID_276_">
								<g id="XMLID_277_">
									
										<ellipse id="XMLID_278_" transform="matrix(0.9747 -0.2236 0.2236 0.9747 -56.4801 48.4282)" style="fill:#AAD1D0;" cx="185.555" cy="273.556" rx="63.631" ry="63.631"/>
									
										<ellipse id="XMLID_279_" transform="matrix(0.7071 -0.7071 0.7071 0.7071 -139.0854 211.3301)" style="fill:#DAF7F7;" cx="185.555" cy="273.556" rx="58.015" ry="58.015"/>
								</g>
							</g>
						</g>
					</g>
				</g>
				<g id="XMLID_316_">
					<g id="XMLID_323_">
						<g id="XMLID_346_">
							
								<line id="XMLID_357_" style="fill:none;stroke:#494744;stroke-miterlimit:10;" x1="96.729" y1="488.001" x2="98.229" y2="488.001"/>
							
								<line id="XMLID_356_" style="fill:none;stroke:#494744;stroke-miterlimit:10;stroke-dasharray:2.973,2.973;" x1="101.202" y1="488.001" x2="397.013" y2="488.001"/>
							
								<line id="XMLID_347_" style="fill:none;stroke:#494744;stroke-miterlimit:10;" x1="398.5" y1="488.001" x2="400" y2="488.001"/>
						</g>
					</g>
					<g id="XMLID_317_">
						<g id="XMLID_318_">
							<g id="XMLID_319_">
								<g id="XMLID_320_">
									<circle id="XMLID_322_" style="fill:#AAD1D0;" cx="96.729" cy="488.001" r="63.63"/>
									<circle id="XMLID_321_" style="fill:#DAF7F7;" cx="96.729" cy="488.001" r="58.015"/>
								</g>
							</g>
						</g>
					</g>
				</g>
				<g id="XMLID_329_">
					<g id="XMLID_336_">
						<g id="XMLID_327_">
							
								<line id="XMLID_344_" style="fill:none;stroke:#494744;stroke-miterlimit:10;" x1="185.555" y1="702.445" x2="186.616" y2="701.385"/>
							
								<line id="XMLID_343_" style="fill:none;stroke:#494744;stroke-miterlimit:10;stroke-dasharray:2.973,2.973;" x1="188.718" y1="699.282" x2="397.888" y2="490.112"/>
							
								<line id="XMLID_328_" style="fill:none;stroke:#494744;stroke-miterlimit:10;" x1="398.939" y1="489.061" x2="400" y2="488.001"/>
						</g>
					</g>
					<g id="XMLID_330_">
						<g id="XMLID_331_">
							<g id="XMLID_332_">
								<g id="XMLID_333_">
									
										<ellipse id="XMLID_335_" transform="matrix(0.7071 -0.7071 0.7071 0.7071 -442.3559 336.9489)" style="fill:#AAD1D0;" cx="185.555" cy="702.445" rx="63.631" ry="63.631"/>
									
										<ellipse id="XMLID_334_" transform="matrix(0.7071 -0.7071 0.7071 0.7071 -442.356 336.9489)" style="fill:#DAF7F7;" cx="185.555" cy="702.445" rx="58.015" ry="58.015"/>
								</g>
							</g>
						</g>
					</g>
				</g>
				<g id="XMLID_350_">
					<g id="XMLID_362_">
						<g id="XMLID_324_">
							
								<line id="XMLID_385_" style="fill:none;stroke:#494744;stroke-miterlimit:10;" x1="614.445" y1="702.445" x2="613.384" y2="701.385"/>
							
								<line id="XMLID_384_" style="fill:none;stroke:#494744;stroke-miterlimit:10;stroke-dasharray:2.973,2.973;" x1="611.282" y1="699.282" x2="402.112" y2="490.112"/>
							
								<line id="XMLID_325_" style="fill:none;stroke:#494744;stroke-miterlimit:10;" x1="401.061" y1="489.061" x2="400" y2="488.001"/>
						</g>
					</g>
					<g id="XMLID_351_">
						<g id="XMLID_352_">
							<g id="XMLID_353_">
								<g id="XMLID_354_">
									
										<ellipse id="XMLID_361_" transform="matrix(0.9747 -0.2236 0.2236 0.9747 -141.5365 155.2121)" style="fill:#AAD1D0;" cx="614.445" cy="702.445" rx="63.631" ry="63.631"/>
									
										<ellipse id="XMLID_355_" transform="matrix(0.7071 -0.7071 0.7071 0.7071 -316.7372 640.2195)" style="fill:#DAF7F7;" cx="614.445" cy="702.445" rx="58.015" ry="58.015"/>
								</g>
							</g>
						</g>
					</g>
				</g>
				<g id="XMLID_363_">
					<g id="XMLID_375_">
						<g id="XMLID_427_">
							
								<line id="XMLID_507_" style="fill:none;stroke:#494744;stroke-miterlimit:10;" x1="703.271" y1="488.001" x2="701.771" y2="488.001"/>
							
								<line id="XMLID_501_" style="fill:none;stroke:#494744;stroke-miterlimit:10;stroke-dasharray:2.973,2.973;" x1="698.798" y1="488.001" x2="402.986" y2="488.001"/>
							
								<line id="XMLID_429_" style="fill:none;stroke:#494744;stroke-miterlimit:10;" x1="401.5" y1="488.001" x2="400" y2="488.001"/>
						</g>
					</g>
					<g id="XMLID_364_">
						<g id="XMLID_365_">
							<g id="XMLID_366_">
								<g id="XMLID_367_">
									<circle id="XMLID_374_" style="fill:#AAD1D0;" cx="703.271" cy="488.001" r="63.63"/>
									<circle id="XMLID_368_" style="fill:#DAF7F7;" cx="703.271" cy="488.001" r="58.015"/>
								</g>
							</g>
						</g>
					</g>
				</g>
				<g id="XMLID_376_">
					<g id="XMLID_388_">
						<g id="XMLID_517_">
							
								<line id="XMLID_523_" style="fill:none;stroke:#494744;stroke-miterlimit:10;" x1="614.445" y1="273.556" x2="613.384" y2="274.617"/>
							
								<line id="XMLID_521_" style="fill:none;stroke:#494744;stroke-miterlimit:10;stroke-dasharray:2.973,2.973;" x1="611.282" y1="276.719" x2="402.112" y2="485.889"/>
							
								<line id="XMLID_519_" style="fill:none;stroke:#494744;stroke-miterlimit:10;" x1="401.061" y1="486.94" x2="400" y2="488.001"/>
						</g>
					</g>
					<g id="XMLID_377_">
						<g id="XMLID_378_">
							<g id="XMLID_379_">
								<g id="XMLID_380_">
									
										<ellipse id="XMLID_387_" transform="matrix(0.9747 -0.2236 0.2236 0.9747 -45.6164 144.3485)" style="fill:#AAD1D0;" cx="614.445" cy="273.556" rx="63.631" ry="63.631"/>
									
										<ellipse id="XMLID_381_" transform="matrix(0.7071 -0.7071 0.7071 0.7071 -13.4666 514.6007)" style="fill:#DAF7F7;" cx="614.445" cy="273.556" rx="58.015" ry="58.015"/>
								</g>
							</g>
						</g>
					</g>
				</g>
				<g id="XMLID_389_">
					<g id="XMLID_401_">
						<g id="XMLID_542_">
							<line id="XMLID_600_" style="fill:none;stroke:#494744;stroke-miterlimit:10;" x1="400" y1="184.73" x2="400" y2="186.23"/>
							
								<line id="XMLID_598_" style="fill:none;stroke:#494744;stroke-miterlimit:10;stroke-dasharray:2.973,2.973;" x1="400" y1="189.203" x2="400" y2="485.014"/>
							
								<line id="XMLID_594_" style="fill:none;stroke:#494744;stroke-miterlimit:10;" x1="400" y1="486.501" x2="400" y2="488.001"/>
						</g>
					</g>
					<g id="XMLID_390_">
						<g id="XMLID_391_">
							<g id="XMLID_392_">
								<g id="XMLID_393_">
									<circle id="XMLID_400_" style="fill:#AAD1D0;" cx="400" cy="184.73" r="63.631"/>
									<circle id="XMLID_394_" style="fill:#DAF7F7;" cx="400" cy="184.73" r="58.015"/>
								</g>
							</g>
						</g>
					</g>
				</g>
				<g id="XMLID_14003_">
					<path id="XMLID_14008_" style="fill:#2B353F;" d="M206.101,253.592c-0.095,0-0.192-0.014-0.288-0.046
						c-0.486-0.159-0.751-0.683-0.592-1.169c0.02-0.06,1.987-6.052,3.979-11.213l0.246-0.638c1.861-4.828,2.303-5.975,4.409-6.653
						c0.489-0.156,1.01,0.111,1.166,0.598c0.157,0.487-0.111,1.009-0.598,1.166c-1.223,0.394-1.46,0.916-3.249,5.556l-0.246,0.638
						c-1.976,5.117-3.928,11.064-3.947,11.123C206.853,253.345,206.49,253.592,206.101,253.592z"/>
					<path id="XMLID_13999_" style="fill:#969B97;" d="M154.934,305.173c-2.873,1.79-0.557,6.576-0.557,6.576h62.917
						c0,0-0.077-4.786-2.702-5.172C211.968,306.191,154.934,305.173,154.934,305.173z"/>
					<path id="XMLID_13989_" style="fill:#B8BBC1;" d="M210.218,303.154l-7.44-2.426c0.311,3.796,0.441,7.882,0.441,7.882h12.043
						C212.38,308.79,209.497,305.419,210.218,303.154z"/>
					<path id="XMLID_13991_" style="fill:#D5D8DF;" d="M211.865,295.331l-1.647,7.823c-0.721,2.265,2.162,5.636,5.044,5.455
						l1.441-13.278H211.865z"/>
					<polygon id="XMLID_13974_" style="fill:#C4C9CE;" points="170.51,275.039 175.298,269.984 180.162,271.142 183.41,277.354 
											"/>
					<path id="XMLID_13980_" style="fill:#D7DCE2;" d="M202.778,300.728c-0.081-0.986-0.174-1.953-0.28-2.823
						c-0.515-4.22-3.603-13.072-17.807-19.969c-14.205-6.896-32.424-1.235-33.865,12.867c-1.319,12.903,6.588,17.807,12.249,17.807
						c4.643,0,28.663,0,37.159,0c1.864,0,2.985,0,2.985,0S203.089,304.524,202.778,300.728z"/>
					<path id="XMLID_13992_" style="fill:#EDF1F4;" d="M202.778,300.728c-0.081-0.986-0.174-1.953-0.28-2.823
						c-0.515-4.22-3.603-13.072-17.807-19.969c-4.477-2.174-9.352-3.097-13.975-2.905c3.937,0.142,7.977,1.079,11.736,2.905
						c14.205,6.896,17.293,15.749,17.807,19.969c0.106,0.87,0.199,1.837,0.28,2.823c0.311,3.796,0.441,7.882,0.441,7.882
						c1.41,0,2.239,0,2.239,0S203.089,304.524,202.778,300.728z"/>
					<polygon id="XMLID_13987_" style="fill:#969B97;" points="174.835,262.393 175.298,269.984 180.162,271.142 178,262.393 					
						"/>
					<g id="XMLID_13993_">
						<polygon id="XMLID_13997_" style="fill:#212321;" points="171.069,264.11 171.645,262.226 170.508,261.879 169.933,263.763 
							168.946,263.461 168.8,263.94 171.91,264.89 172.056,264.411 						"/>
						<g id="XMLID_13990_">
							<path id="XMLID_13988_" style="fill:#212321;" d="M185.604,262.457c0.193-1.891-0.695-4.285-4.748-5.327
								c-4.053-1.042-6.334-1.583-10.347-3.049c-4.012-1.467-7.486,2.47-8.027,3.165c-0.54,0.695,6.099,4.323,9.92,5.558
								c3.821,1.235,6.137,0.193,8.453-0.347C183.173,261.917,185.604,262.457,185.604,262.457z"/>
							<path id="XMLID_13995_" style="fill:#BAD7E2;" d="M180.857,260.875c-2.316,0.54-4.632,1.583-8.453,0.347
								c-2.95-0.954-7.577-3.333-9.286-4.688c-0.31,0.317-0.529,0.577-0.634,0.712c-0.54,0.695,6.099,4.323,9.92,5.558
								c3.821,1.235,6.137,0.193,8.453-0.347c2.316-0.54,4.748,0,4.748,0c0.052-0.512,0.021-1.06-0.126-1.608
								C184.956,260.75,182.864,260.406,180.857,260.875z"/>
						</g>
					</g>
					<circle id="XMLID_13994_" style="fill:#59C5D3;" cx="185.629" cy="295.331" r="11.837"/>
					<g id="XMLID_13998_">
						<path id="XMLID_14000_" style="fill:#212321;" d="M185.628,297.133c-0.337,0-0.671-0.136-0.915-0.405
							c-0.458-0.505-0.421-1.286,0.084-1.745l10.025-9.109c0.505-0.458,1.287-0.42,1.745,0.084c0.458,0.505,0.421,1.286-0.084,1.745
							l-10.025,9.11C186.222,297.026,185.925,297.133,185.628,297.133z"/>
						<path id="XMLID_13996_" style="fill:#4D514D;" d="M197.918,287.817h-4.53c-0.707,0-1.286-0.579-1.286-1.286v-0.413
							c0-0.707,0.579-1.286,1.286-1.286h4.53c0.707,0,1.286,0.579,1.286,1.286v0.413
							C199.204,287.238,198.625,287.817,197.918,287.817z"/>
					</g>
					<path id="XMLID_14004_" style="fill:#212321;" d="M162.946,310.205h-2.162c-2.293,0-4.169,1.876-4.169,4.169h10.499
						C167.115,312.081,165.239,310.205,162.946,310.205z"/>
					<path id="XMLID_14002_" style="fill:#212321;" d="M212.534,310.205h-2.162c-2.293,0-4.169,1.876-4.169,4.169h10.499
						C216.703,312.081,214.827,310.205,212.534,310.205z"/>
					<path id="XMLID_307_" style="fill:#C4C9CE;" d="M213.403,295.337l1.246-0.012c-0.015-1.649,0.023-3.008,0.06-4.323
						c0.106-3.737,0.189-6.689-1.209-12.593c-1.829-7.722-3.849-17.889-3.87-17.991l-1.222,0.242
						c0.02,0.102,2.045,10.291,3.879,18.035c1.361,5.744,1.283,8.482,1.176,12.27C213.428,292.232,213.388,293.665,213.403,295.337z
						"/>
					<path id="XMLID_14007_" style="fill:#2E869E;" d="M202.817,257.837c0.118,0.247,0.25,0.493,0.402,0.733l2.419,3.823
						c0,0,1.566,0.515,3.755,0c2.189-0.515,3.231-2.434,3.231-2.434l0.579-6.203C210.619,256.241,204.821,260.797,202.817,257.837z"
						/>
					<path id="XMLID_14009_" style="fill:#33BDDD;" d="M220.074,244.663c-0.309-0.656-1.312-0.926-3.242,0.27
						c-1.93,1.197-10.306,6.215-12.661,7.411c-2.108,1.071-2.365,3.375-1.354,5.493c2.004,2.959,7.802-1.597,10.386-4.081
						c0,0,6.253-6.121,6.871-6.662C220.691,246.554,220.383,245.319,220.074,244.663z"/>
					<path id="XMLID_14006_" style="fill:#4C5A66;" d="M208.01,256.578c-0.17,0-0.341-0.047-0.494-0.143
						c-0.433-0.273-0.562-0.846-0.289-1.278c3.094-4.898,6.698-10.913,8.237-13.482c0.352-0.587,0.597-0.997,0.705-1.174
						c0.755-1.238-0.017-4.213-0.681-5.798c-0.198-0.472,0.024-1.015,0.496-1.213c0.471-0.197,1.014,0.023,1.212,0.495
						c0.214,0.508,2.045,5.036,0.554,7.48c-0.106,0.175-0.349,0.58-0.697,1.161c-1.543,2.574-5.155,8.602-8.26,13.519
						C208.617,256.425,208.317,256.578,208.01,256.578z"/>
				</g>
				<g id="XMLID_132_">
					<path id="XMLID_118_" style="fill:#C3C848;" d="M399.576,219.643c-7.682-0.279-18.792,0.159-26.914-10.351
						c-8.122-10.511-8.918-28.666-4.618-40.609c4.3-11.944,19.27-12.9,27.551-10.988c8.281,1.911,17.04-3.344,26.436,3.026
						c9.396,6.37,16.722,22.295,9.714,40.769C424.738,219.961,412.413,220.108,399.576,219.643z"/>
					<path id="XMLID_131_" style="fill:#90B11A;" d="M379.988,160.719c2.006-2.778,6.052-3.765,13.696-2.599
						c7.644,1.166,12.103,0.029,15.846,0c3.742-0.028,10.511,1.883,12.183,5.307c1.672,3.424-16.403,5.547-26.993,4.406
						C384.128,166.691,378.529,162.739,379.988,160.719z"/>
					<path id="XMLID_122_" style="fill:#1F0F00;" d="M397.824,161.674c0.523-3.007,2.07-7.246,2.548-9.237
						c0.478-1.991,0.557-2.628,0-3.663c-0.557-1.035,3.344-1.593,3.344,0c0,1.592-2.469,3.344-2.946,6.529
						c-0.478,3.185-0.77,6.768-0.77,6.768S397.611,162.902,397.824,161.674z"/>
					<path id="XMLID_130_" style="fill:#C3C848;" d="M372.861,164.541c2.403-3.003,9.077-9.197,19.707-5.016
						c10.63,4.18,15.169-1.075,23.53,0.239c8.361,1.314,12.183,10.63,12.302,12.899c0.119,2.269-12.21,6.569-30.59,4.18
						C379.43,174.454,369.517,168.721,372.861,164.541z"/>
				</g>
				<g id="XMLID_14029_">
					<path id="XMLID_14015_" style="fill:#28281E;" d="M614.445,257.759c-14.266,0-30.507,13.168-30.507,28.532
						c0,16.461,6.39,22.103,12.73,24.691c4.499,1.837,7.682,2.304,17.777,2.304c10.096,0,13.278-0.468,17.778-2.304
						c6.339-2.588,12.73-8.23,12.73-24.691C644.952,270.927,628.711,257.759,614.445,257.759z"/>
					<ellipse id="XMLID_14011_" style="opacity:0.4;fill:#5E5E52;" cx="614.445" cy="279.596" rx="25.185" ry="20.74"/>
					<path id="XMLID_14045_" style="fill:#010000;" d="M634.204,265.542c4.589,4.932,7.62,11.153,7.62,17.786
						c0,16.461-6.39,22.103-12.73,24.691c-4.499,1.837-7.682,2.305-17.778,2.305c-10.096,0-13.278-0.468-17.778-2.305
						c-1.462-0.597-2.926-1.359-4.314-2.376c2.185,2.67,4.817,4.268,7.441,5.339c4.499,1.837,7.682,2.304,17.777,2.304
						s13.278-0.468,17.778-2.304c6.339-2.588,12.729-8.23,12.729-24.691C644.952,278.246,640.495,270.807,634.204,265.542z"/>
					<path id="XMLID_14018_" style="fill:#010000;" d="M614.445,235.482c-27.215,0-29.958,14.485-27.325,22.277
						c2.634,7.791,3.182,10.425,2.319,13.263l0.004,0.002c3.384-4.465,8.025-8.126,13.074-10.461c-0.002,0-0.004,0-0.006,0
						c-6.995,0.939-5.405-8.84-1.893-12.352s13.827-3.059,13.827-3.059s10.315-0.453,13.827,3.059
						c3.512,3.512,5.102,13.29-1.893,12.352c-0.002,0-0.004,0-0.006,0c5.049,2.335,9.691,5.996,13.074,10.461
						c0,0,0.004-0.002,0.004-0.002c-0.864-2.838-0.315-5.471,2.319-13.263C644.403,249.967,641.66,235.482,614.445,235.482z"/>
					<g id="XMLID_14043_">
						<path id="XMLID_14046_" style="fill:#28281E;" d="M602.511,260.563c-2.169,0.291-3.512-0.45-4.228-1.713
							c0.018,1.343,0.348,2.552,1.08,3.391c1.029-0.612,2.08-1.181,3.154-1.678C602.515,260.563,602.513,260.563,602.511,260.563z"
							/>
						<path id="XMLID_14047_" style="fill:#28281E;" d="M615.103,238.28c17.77,0,25.104,6.176,27.322,12.632
							c-0.974-7.34-7.643-15.43-27.981-15.43c-27.215,0-29.958,14.485-27.325,22.277c0.008,0.025,0.016,0.047,0.024,0.071
							C586.025,249.81,590.819,238.28,615.103,238.28z"/>
						<path id="XMLID_14048_" style="fill:#28281E;" d="M589.603,266.323c0.342,1.945,0.262,3.298-0.164,4.698l0.004,0.002
							c0.297-0.392,0.616-0.77,0.933-1.15C590.249,268.882,589.995,267.732,589.603,266.323z"/>
						<path id="XMLID_14049_" style="fill:#28281E;" d="M631.199,254.831c0.37,3.298-0.819,6.269-4.821,5.731
							c-0.002,0-0.004,0-0.006,0c1.352,0.625,2.671,1.352,3.948,2.158C632.293,261.266,632.262,257.81,631.199,254.831z"/>
					</g>
				</g>
				<g id="XMLID_164_">
					<rect id="XMLID_159_" x="651.915" y="491.121" style="fill:#374758;" width="102.712" height="6.934"/>
					<g id="XMLID_163_">
						<g id="XMLID_162_">
							<path id="XMLID_156_" style="fill:#7B92A3;" d="M729.849,512.704h-2.575c-1.285,0-2.336-1.051-2.336-2.336v-31.561
								c0-1.285,1.051-2.336,2.336-2.336h2.574c1.285,0,2.336,1.051,2.336,2.336v31.561
								C732.185,511.653,731.133,512.704,729.849,512.704z"/>
							<path id="XMLID_149_" style="fill:#5E7284;" d="M737.095,512.704h-2.575c-1.285,0-2.336-1.051-2.336-2.336v-31.561
								c0-1.285,1.051-2.336,2.336-2.336h2.575c1.285,0,2.336,1.051,2.336,2.336v31.561
								C739.431,511.653,738.38,512.704,737.095,512.704z"/>
							<path id="XMLID_150_" style="fill:#5E7284;" d="M749.116,512.704h-2.575c-1.285,0-2.336-1.051-2.336-2.336v-31.561
								c0-1.285,1.051-2.336,2.336-2.336h2.575c1.285,0,2.336,1.051,2.336,2.336v31.561
								C751.452,511.653,750.401,512.704,749.116,512.704z"/>
						</g>
						<g id="XMLID_148_">
							<path id="XMLID_161_" style="fill:#7B92A3;" d="M676.692,476.471h2.575c1.285,0,2.336,1.051,2.336,2.336v31.561
								c0,1.285-1.051,2.336-2.336,2.336h-2.575c-1.285,0-2.336-1.051-2.336-2.336v-31.561
								C674.356,477.523,675.408,476.471,676.692,476.471z"/>
							<path id="XMLID_160_" style="fill:#5E7284;" d="M669.446,476.471h2.575c1.285,0,2.336,1.051,2.336,2.336v31.561
								c0,1.285-1.051,2.336-2.336,2.336h-2.575c-1.285,0-2.336-1.051-2.336-2.336v-31.561
								C667.11,477.523,668.161,476.471,669.446,476.471z"/>
							<path id="XMLID_155_" style="fill:#5E7284;" d="M657.425,476.471H660c1.285,0,2.336,1.051,2.336,2.336v31.561
								c0,1.285-1.051,2.336-2.336,2.336h-2.575c-1.285,0-2.336-1.051-2.336-2.336v-31.561
								C655.089,477.523,656.141,476.471,657.425,476.471z"/>
						</g>
					</g>
				</g>
				<g id="XMLID_36_">
					<g id="XMLID_35_">
						<g id="XMLID_27_">
							<path id="XMLID_23_" style="fill:#E0687C;stroke:#FFFFFF;stroke-width:2;stroke-miterlimit:10;" d="M120.056,523.659H73.402
								c-4.911,0-8.907-3.96-8.907-8.827v-54.091c0-4.867,3.996-8.827,8.907-8.827h46.654c4.911,0,8.907,3.96,8.907,8.827v54.091
								C128.963,519.7,124.968,523.659,120.056,523.659z"/>
						</g>
						<g id="XMLID_31_">
							<g id="XMLID_28_">
								<path id="XMLID_20_" style="fill:#F9AFBE;" d="M83.013,463.358c0,2.967-2.405,5.372-5.372,5.372
									c-2.967,0-5.372-2.405-5.372-5.372c0-2.967,2.405-5.372,5.372-5.372C80.608,457.985,83.013,460.39,83.013,463.358z"/>
								<path id="XMLID_29_" style="fill:#F9AFBE;" d="M121.191,463.358c0,2.967-2.405,5.372-5.372,5.372
									c-2.967,0-5.372-2.405-5.372-5.372c0-2.967,2.405-5.372,5.372-5.372C118.785,457.985,121.191,460.39,121.191,463.358z"/>
							</g>
							<g id="XMLID_32_">
								<path id="XMLID_34_" style="fill:#F9AFBE;" d="M83.013,512.216c0,2.967-2.405,5.372-5.372,5.372
									c-2.967,0-5.372-2.405-5.372-5.372c0-2.967,2.405-5.372,5.372-5.372C80.608,506.844,83.013,509.249,83.013,512.216z"/>
								<circle id="XMLID_33_" style="fill:#F9AFBE;" cx="115.818" cy="512.216" r="5.372"/>
							</g>
						</g>
					</g>
					<rect id="XMLID_30_" x="87.242" y="460.061" style="fill:#842A3E;" width="18.975" height="8.3"/>
				</g>
				<g id="XMLID_9_">
					<path id="XMLID_10_" style="fill:#E0687C;" d="M148.478,723.402c-0.816,0-1.607-0.143-2.352-0.437
						c-1.876-0.739-5.024-3.09-5.024-10.525h1.948c0,4.588,1.381,7.764,3.79,8.713c2.282,0.899,5.271-0.227,7.8-2.938
						c4.602-4.933,12.304-13.189,19.544-13.189v1.948c-6.393,0-14.021,8.177-18.119,12.57
						C153.733,722.043,150.991,723.402,148.478,723.402z"/>
					<path id="XMLID_14_" style="fill:#E0687C;" d="M174.184,703.944c-7.24,0-14.942-8.256-19.544-13.189
						c-2.529-2.711-5.518-3.837-7.8-2.938c-2.408,0.949-3.79,4.125-3.79,8.713h-1.948c0-7.436,3.147-9.786,5.024-10.525
						c3.043-1.199,6.851,0.112,9.939,3.421c4.098,4.393,11.726,12.57,18.119,12.57V703.944z"/>
					<rect id="XMLID_11_" x="139.051" y="693.054" style="fill:#374758;" width="6.627" height="22.862"/>
					<path id="XMLID_12_" style="fill:#E0687C;" d="M196.927,703.944v-1.948c6.393,0,14.021-8.177,18.119-12.57
						c3.088-3.309,6.896-4.62,9.939-3.421c1.876,0.739,5.024,3.09,5.024,10.525h-1.948c0-4.588-1.381-7.764-3.79-8.713
						c-2.282-0.899-5.271,0.227-7.8,2.938C211.869,695.688,204.167,703.944,196.927,703.944z"/>
					<path id="XMLID_13_" style="fill:#E0687C;" d="M222.633,723.402c-2.513,0-5.255-1.359-7.587-3.858
						c-4.098-4.393-11.726-12.57-18.119-12.57v-1.948c7.24,0,14.942,8.256,19.544,13.189c2.529,2.711,5.518,3.837,7.8,2.938
						c2.408-0.949,3.79-4.125,3.79-8.713h1.948c0,7.436-3.148,9.786-5.024,10.525C224.24,723.259,223.448,723.402,222.633,723.402z"
						/>
					
						<rect id="XMLID_22_" x="225.432" y="693.054" transform="matrix(-1 -1.224647e-16 1.224647e-16 -1 457.4924 1408.9705)" style="fill:#374758;" width="6.627" height="22.862"/>
					<polygon id="XMLID_25_" style="fill:#374758;" points="186.194,699.496 184.916,699.496 173.895,699.496 173.895,704.485 
						173.895,709.475 184.916,709.475 186.194,709.475 197.216,709.475 197.216,704.485 197.216,699.496 					"/>
				</g>
				<g id="XMLID_110_">
					<g id="XMLID_127_">
						<path id="XMLID_404_" style="fill:#FFFFFF;" d="M636.173,683.344c6.438,1.725,12.694,2.988,16.253-0.287
							c3.559-3.274,3.553-8.756,2.68-9.426c-2.058-0.81-4.656,0.495-7.055,4.81c-2.399,4.315-6.383,4.446-6.383,4.446
							s-4.223-2.167-8.851-3.018c-0.246-0.026-0.498-0.068-0.758-0.127c-0.441-0.066-0.884-0.118-1.326-0.154
							c-3.223,0.003-5.182,2.872-6.008,3.507l0.563,0.453C627.734,681.497,630.949,681.944,636.173,683.344z"/>
						<path id="XMLID_403_" style="fill:#1AB8CB;" d="M660.478,684.113c-2.939-4.984-3.315-9.671-5.372-10.482
							c0.874,0.669,0.879,6.151-2.68,9.426c-3.559,3.274-9.815,2.012-16.253,0.287c-6.438-1.726-9.826-2.003-12.481,2.06
							c-2.655,4.062-10.214,11.872-11.896,13.516c-1.682,1.644-4.613,0.165-5.31-1.059c0,0-3.041,2.312-4.258,4.028
							c-0.125,0.177-0.267,0.342-0.419,0.5l0.005-0.001c0,0,2.228-0.392,4.841,0.595c2.613,0.986,1.996,5.035-1.438,6.811
							c-3.434,1.775-10.806,3.861-15.513,1.675c-4.707-2.186-1.77-3.693,0.82-4.782l0,0c-2.246,0.86-4.534,1.946-5.986,2.961
							c-1.393,2.422-0.211,6.499,3.147,7.369c3.36,0.87,7.559,3.378,23.808-0.417c16.25-3.796,20.888-13.021,36.61-16.615
							c15.722-3.594,15.302-5.973,15.856-8.284C663.959,691.7,663.417,689.097,660.478,684.113z"/>
						<path id="XMLID_402_" style="fill:#00767F;" d="M630.733,679.589c-0.731-0.06-1.458-0.075-2.165-0.031
							c-5.9,0.368-8.648,4.072-8.919,4.588c-0.271,0.516,0.266,0.952-0.032,1.284c-0.297,0.332-11.128,9.556-12.47,10.539
							c-1.123,0.822-0.83,1.593-0.704,1.823c0.016,0.024,0.03,0.048,0.043,0.07c0.697,1.224,3.628,2.703,5.31,1.059
							c1.682-1.644,9.241-9.454,11.896-13.516c0.501-0.766,1.028-1.378,1.596-1.854l-0.563-0.453
							C625.551,682.461,627.511,679.592,630.733,679.589z"/>
						<path id="XMLID_373_" style="fill:none;stroke:#6A9DA5;stroke-miterlimit:10;" d="M606.486,697.861
							c-0.012-0.022-0.027-0.045-0.043-0.07C606.468,697.836,606.486,697.861,606.486,697.861z"/>
						<path id="XMLID_372_" style="fill:#00767F;" d="M641.668,682.888c2.536,0.688,7.729,2.032,10.367-2.345
							c2.638-4.377,1.467-7.276-0.77-5.478c-2.237,1.798-3.217,5.1-4.812,6.339C644.858,682.642,641.668,682.888,641.668,682.888z"
							/>
						<path id="XMLID_371_" style="fill:#15A2AD;" d="M589.703,711.469c4.707,2.186,12.079,0.1,15.513-1.675
							c3.434-1.775,4.052-5.824,1.438-6.811c-2.613-0.987-4.841-0.595-4.841-0.595l-0.005,0.001
							c-1.324,1.384-3.666,2.137-7.169,2.98c-1.189,0.286-2.644,0.753-4.117,1.318l0,0
							C587.933,707.776,584.996,709.283,589.703,711.469z"/>
						<path id="XMLID_370_" style="fill:#FFFFFF;" d="M623.462,684.011c-1.217,1.221-7.268,8.756-10.545,12.197
							c-3.277,3.441-5.467,2.618-5.215,0.925c0.252-1.693,8.42-8.177,11.631-10.764c0.478-0.385,0.514-0.805,0.376-1.177
							c-0.002,0.084-0.025,0.164-0.091,0.238c-0.297,0.332-11.128,9.556-12.47,10.539c-1.123,0.822-0.83,1.593-0.704,1.823
							c0.016,0.024,0.03,0.048,0.043,0.07c0.697,1.224,3.628,2.703,5.31,1.059c1.682-1.644,9.241-9.454,11.896-13.516
							c1.933-2.958,4.257-3.614,7.863-3.086c-0.001,0-0.003-0.001-0.004-0.001C627.663,681.482,624.679,682.79,623.462,684.011z"/>
						<path id="XMLID_369_" style="fill:#FCC74F;" d="M612.359,699.123c-1.063-1.159-2.48-2.217-4.128-2.412
							c-1.648-0.195-2.085,0.791-2.085,0.791s-0.595-0.828,1.049-1.968c1.644-1.14,3.667-0.034,4.428,0.728
							c0.762,0.761,1.618,2.047,1.618,2.047s0.07,0.367-0.217,0.643C612.737,699.228,612.359,699.123,612.359,699.123z"/>
						<path id="XMLID_349_" style="fill:#FCC74F;" d="M616.841,694.695c-1.063-1.159-2.48-2.217-4.128-2.412
							c-1.648-0.195-2.085,0.791-2.085,0.791s-0.595-0.828,1.049-1.968c1.644-1.14,3.666-0.034,4.428,0.727
							c0.761,0.761,1.618,2.047,1.618,2.047s0.07,0.367-0.217,0.643C617.219,694.8,616.841,694.695,616.841,694.695z"/>
						<path id="XMLID_348_" style="fill:#FCC74F;" d="M621.331,690.949c-1.063-1.159-2.48-2.217-4.127-2.412
							c-1.648-0.195-2.085,0.791-2.085,0.791s-0.595-0.828,1.049-1.968c1.644-1.14,3.667-0.033,4.428,0.727
							c0.762,0.761,1.618,2.047,1.618,2.047s0.07,0.367-0.217,0.643C621.709,691.054,621.331,690.949,621.331,690.949z"/>
						<path id="XMLID_342_" style="fill:#FCC74F;" d="M625.75,686.45c-1.063-1.159-2.48-2.217-4.128-2.412
							c-1.648-0.195-2.085,0.791-2.085,0.791s-0.595-0.828,1.049-1.968c1.644-1.14,3.666-0.033,4.428,0.727
							c0.761,0.761,1.618,2.047,1.618,2.047s0.07,0.367-0.217,0.643C626.128,686.555,625.75,686.45,625.75,686.45z"/>
						<path id="XMLID_341_" style="fill:#B73B44;" d="M632.06,679.743c0.259,0.059,0.512,0.101,0.758,0.127
							C632.565,679.824,632.313,679.781,632.06,679.743z"/>
						<path id="XMLID_340_" style="fill:#B73B44;" d="M632.042,679.74c-0.458-0.106-0.893-0.151-1.309-0.151
							c0.442,0.036,0.885,0.088,1.326,0.154C632.054,679.742,632.048,679.741,632.042,679.74z"/>
						<path id="XMLID_339_" style="fill:#00767F;" d="M619.439,714.015c-3.164-3.222-3.081-8.173,6.449-17.814
							c9.531-9.641,12.6-2.864,24.642-5.507s12.751,3.901,12.751,3.901l-22.851,17.723L619.439,714.015z"/>
						<path id="XMLID_338_" style="fill:#00767F;" d="M583.097,711.078c-0.236,0.518-0.398,1.285-0.391,2.189
							c0.854,3.52,5.731,7.918,19.27,7.245c13.539-0.673,28.231-10.508,37.544-13.475c9.314-2.968,26.348-7.409,25.756-13.188
							c0,0-0.063-0.494-0.352-1.121s-0.966-1.027-0.966-1.027c-0.554,2.311-0.134,4.69-15.856,8.284
							c-15.722,3.594-20.36,12.819-36.61,16.615c-16.25,3.796-20.449,1.287-23.808,0.417c-3.359-0.87-4.54-4.947-3.147-7.369
							C583.814,710.155,583.295,710.644,583.097,711.078z"/>
						<path id="XMLID_337_" style="fill:#1AB8CB;" d="M588.711,719.521c6.025,2.597,16.135,2.231,24.433-0.22
							c8.299-2.452,22.343-10.732,34.947-14.402c12.601-3.669,17.122-6.823,18.112-9.628c-0.189-0.758-0.926-1.421-0.926-1.421
							c0.592,5.779-16.442,10.221-25.756,13.188c-9.314,2.968-24.006,12.802-37.544,13.475c-13.539,0.673-18.416-3.724-19.27-7.245
							c0.003,0.438,0.047,0.909,0.141,1.399C583.965,716.331,585.798,718.265,588.711,719.521z"/>
						<path id="XMLID_314_" style="fill:#00767F;" d="M588.003,721.234c5.654,3.139,14.02,4.177,26.99,1.291
							c12.97-2.887,13.815-6.548,29.506-10.261c15.691-3.714,22.596-8.443,23.705-12.98c0.32-1.311-1.981-2.743-1.957-3.642
							c0.003-0.124-0.014-0.248-0.045-0.37c-0.99,2.805-5.51,5.959-18.112,9.628c-12.604,3.67-26.648,11.951-34.947,14.402
							c-8.298,2.452-18.408,2.818-24.433,0.22c-2.913-1.256-4.746-3.19-5.864-4.854C583.261,716.831,584.665,719.38,588.003,721.234
							z"/>
					</g>
					<g id="XMLID_18_">
						<path id="XMLID_128_" style="fill:#FFFFFF;" d="M630.276,702.438c6.439,3.63,12.81,6.713,17.536,4.179
							c4.727-2.534,6.234-8.424,5.48-9.385c-1.986-1.438-5.137-0.753-8.905,3.22c-3.768,3.973-8.083,3.014-8.083,3.014
							s-3.938-3.494-8.674-5.684c-0.257-0.096-0.516-0.21-0.779-0.346c-0.456-0.193-0.917-0.371-1.382-0.532
							c-3.462-0.887-6.359,1.654-7.421,2.108l0.479,0.641C621.721,698.126,625.052,699.493,630.276,702.438z"/>
						<path id="XMLID_117_" style="fill:#28DCEA;" d="M656.169,709.974c-1.781-6.165-0.891-11.302-2.877-12.741
							c0.754,0.96-0.753,6.85-5.48,9.385c-4.726,2.534-11.097-0.548-17.536-4.179c-6.439-3.63-10.001-4.863-13.974-1.233
							c-3.973,3.63-14.248,9.932-16.508,11.234s-5-1.096-5.411-2.603c0,0-3.904,1.644-5.685,3.151
							c-0.183,0.155-0.381,0.293-0.588,0.422l0.005,0.001c0,0,2.501,0.194,5.035,1.975c2.534,1.781,0.753,5.959-3.425,6.919
							c-4.178,0.959-12.672,1.164-17.125-2.483c-4.452-3.648-0.881-4.455,2.201-4.91l0.001,0c-2.65,0.304-5.407,0.838-7.247,1.528
							c-2.164,2.217-2.021,6.922,1.346,8.783c3.369,1.862,7.186,5.715,25.688,6.124c18.501,0.409,26.03-8.22,43.909-7.741
							c17.878,0.479,18.084-2.192,19.317-4.521C657.813,719.084,657.95,716.138,656.169,709.974z"/>
						<path id="XMLID_125_" style="fill:#00767F;" d="M625.47,696.904c-0.768-0.266-1.545-0.483-2.317-0.631
							c-6.439-1.233-10.412,1.987-10.846,2.466c-0.434,0.479,0.023,1.096-0.388,1.37s-14.591,7.193-16.303,7.878
							c-1.433,0.573-1.331,1.482-1.26,1.763c0.01,0.031,0.019,0.06,0.027,0.086c0.411,1.507,3.151,3.905,5.411,2.603
							s12.536-7.604,16.508-11.234c0.749-0.685,1.484-1.196,2.226-1.551l-0.479-0.641
							C619.111,698.558,622.008,696.018,625.47,696.904z"/>
						<path id="XMLID_112_" style="fill:none;stroke:#6A9DA5;stroke-miterlimit:10;" d="M594.382,709.836
							c-0.007-0.027-0.016-0.056-0.027-0.086C594.37,709.805,594.382,709.836,594.382,709.836z"/>
						<path id="XMLID_109_" style="fill:#00767F;" d="M636.304,703.466c2.534,1.438,7.74,4.315,11.782,0.342
							c4.042-3.973,3.584-7.41,0.685-6.096c-2.899,1.313-4.863,4.59-6.918,5.48S636.304,703.466,636.304,703.466z"/>
						<path id="XMLID_120_" style="fill:#1DBBBF;" d="M572.599,719.82c4.453,3.648,12.947,3.442,17.125,2.483
							c4.179-0.959,5.96-5.138,3.425-6.919c-2.535-1.781-5.035-1.975-5.035-1.975l-0.005-0.001
							c-1.805,1.122-4.528,1.284-8.522,1.222c-1.356-0.021-3.048,0.079-4.786,0.279l-0.001,0
							C571.718,715.365,568.147,716.173,572.599,719.82z"/>
						<path id="XMLID_124_" style="fill:#FFFFFF;" d="M616.439,699.647c-1.644,0.976-10.224,7.398-14.693,10.189
							c-4.47,2.791-6.595,1.303-5.857-0.446c0.738-1.749,11.301-6.459,15.464-8.351c0.62-0.282,0.775-0.723,0.729-1.16
							c-0.025,0.09-0.072,0.169-0.164,0.23c-0.411,0.274-14.591,7.193-16.303,7.878c-1.433,0.573-1.331,1.482-1.26,1.763
							c0.01,0.031,0.019,0.06,0.027,0.086c0.411,1.507,3.151,3.905,5.411,2.603s12.536-7.604,16.508-11.234
							c2.893-2.644,5.57-2.707,9.297-1.144c-0.002-0.001-0.003-0.002-0.004-0.003C621.65,698.09,618.083,698.671,616.439,699.647z"
							/>
						<path id="XMLID_113_" style="fill:#FCC74F;" d="M600.342,712.813c-0.822-1.538-2.051-3.066-3.767-3.73
							c-1.716-0.664-2.457,0.274-2.457,0.274s-0.411-1.053,1.67-1.824c2.081-0.771,3.947,0.976,4.555,2.004
							c0.608,1.027,1.173,2.646,1.173,2.646s-0.026,0.414-0.411,0.631C600.719,713.03,600.342,712.813,600.342,712.813z"/>
						<path id="XMLID_114_" style="fill:#FCC74F;" d="M606.378,709.294c-0.822-1.538-2.051-3.066-3.767-3.73
							c-1.716-0.664-2.458,0.274-2.458,0.274s-0.411-1.053,1.67-1.824c2.081-0.771,3.947,0.976,4.555,2.004
							c0.608,1.028,1.173,2.646,1.173,2.646s-0.026,0.414-0.411,0.631C606.755,709.511,606.378,709.294,606.378,709.294z"/>
						<path id="XMLID_119_" style="fill:#FCC74F;" d="M612.235,706.51c-0.822-1.538-2.052-3.066-3.767-3.73
							c-1.716-0.664-2.457,0.274-2.457,0.274s-0.411-1.053,1.67-1.824c2.081-0.771,3.947,0.976,4.555,2.004
							c0.608,1.027,1.173,2.646,1.173,2.646s-0.026,0.414-0.411,0.631C612.612,706.727,612.235,706.51,612.235,706.51z"/>
						<path id="XMLID_121_" style="fill:#FCC74F;" d="M618.223,702.898c-0.822-1.538-2.052-3.066-3.768-3.73
							c-1.716-0.664-2.457,0.274-2.457,0.274s-0.411-1.053,1.67-1.824c2.081-0.771,3.947,0.976,4.555,2.004
							c0.608,1.028,1.173,2.646,1.173,2.646s-0.026,0.414-0.411,0.631C618.6,703.115,618.223,702.898,618.223,702.898z"/>
						<path id="XMLID_123_" style="fill:#B73B44;" d="M626.852,697.436c0.262,0.135,0.522,0.249,0.779,0.346
							C627.373,697.662,627.113,697.547,626.852,697.436z"/>
						<path id="XMLID_126_" style="fill:#B73B44;" d="M626.834,697.427c-0.462-0.24-0.918-0.409-1.364-0.523
							c0.464,0.16,0.926,0.339,1.382,0.532C626.846,697.433,626.84,697.43,626.834,697.427z"/>
						<path id="XMLID_26_" style="fill:#00767F;" d="M603.836,730.763c-2.509-4.334-1.053-9.629,11.845-17.354
							s14.323,0.402,27.988,0.887c13.664,0.485,12.619,7.709,12.619,7.709l-29.436,12.729L603.836,730.763z"/>
						<path id="XMLID_116_" style="fill:#00767F;" d="M565.612,717.577c-0.397,0.491-0.782,1.271-1.025,2.243
							c-0.055,4.017,3.971,10.087,18.698,13.101c14.727,3.014,33.222-3.494,44.045-4.11c10.823-0.616,30.346-0.685,31.305-7.055
							c0,0,0.068-0.548-0.068-1.302c-0.137-0.753-0.754-1.37-0.754-1.37c-1.233,2.329-1.438,5-19.317,4.521
							c-17.879-0.479-25.407,8.149-43.909,7.741c-18.502-0.409-22.319-4.262-25.688-6.124c-3.367-1.861-3.511-6.566-1.346-8.783
							C566.637,716.783,565.945,717.165,565.612,717.577z"/>
						<path id="XMLID_111_" style="fill:#1AB8CB;" d="M569.311,728.195c5.754,4.452,16.714,6.85,26.304,6.508
							c9.59-0.343,26.961-5.36,41.511-5.823c14.548-0.463,20.274-2.602,22.111-5.342c0.006-0.867-0.602-1.782-0.602-1.782
							c-0.959,6.37-20.482,6.439-31.305,7.055c-10.823,0.617-29.318,7.124-44.045,4.11c-14.727-3.014-18.752-9.084-18.698-13.101
							c-0.117,0.472-0.201,0.989-0.235,1.542C565.095,723.458,566.529,726.042,569.311,728.195z"/>
						<path id="XMLID_115_" style="fill:#00767F;" d="M568.078,729.839c5.206,4.932,13.906,8.357,28.633,8.836
							c14.728,0.479,16.646-3.219,34.524-2.877c17.878,0.343,26.601-2.831,29.044-7.398c0.706-1.32-1.37-3.494-1.096-4.453
							c0.038-0.133,0.053-0.271,0.054-0.41c-1.837,2.74-7.564,4.879-22.111,5.342c-14.55,0.463-31.921,5.48-41.511,5.823
							c-9.59,0.342-20.55-2.055-26.304-6.508c-2.782-2.153-4.217-4.736-4.959-6.832
							C564.201,723.801,565.005,726.927,568.078,729.839z"/>
					</g>
				</g>
			</g>
			<g id="XMLID_407_">
				<defs>
					
						<ellipse id="XMLID_406_" transform="matrix(0.7071 -0.7071 0.7071 0.7071 -223.482 430.1236)" cx="407.464" cy="484.828" rx="162.076" ry="162.076"/>
				</defs>
				<clipPath id="XMLID_00000052801531544024807020000000821539882942228662_">
					<use xlink:href="#XMLID_406_"  style="overflow:visible;"/>
				</clipPath>
				<g id="XMLID_312_" style="clip-path:url(#XMLID_00000052801531544024807020000000821539882942228662_);">
					<path id="XMLID_5_" style="fill:#FFD6B3;" d="M336.633,536.027c-19.515-21.516-20.265-35.777-20.265-53.039
						c0-17.263,0-68.113,0-77.683c0-9.57,5.254-20.077,17.638-20.077c12.384,0,17.638,3.565,17.638,11.634s0,12.759,0,18.389
						s0.5,3.065,0.5-5.567c0-8.631,0-10.258,0-13.01c0-2.752,0.375-20.766,19.389-20.766c19.014,0,17.888,15.136,17.888,20.14
						c0,5.004,0,9.632,0,13.885c0,4.253,0.751,3.628,0.751-4.503c0-8.131,0-10.883,0-15.512c0-4.628,1.876-20.39,18.514-20.39
						c16.637,0,19.515,10.633,19.515,19.514s0,12.384,0,16.012c0,3.628,0.182-1.532,0.273-8.069
						c0.122-8.755,0.665-27.457,20.367-27.457c19.702,0,22.329,10.633,22.329,21.891c0,11.258,0,23.08,0,26.27
						s0.438,2.627,0.438-6.192c0-8.819,0-17.591,0-19.984c0-2.392,0.172-7.928-2.502-13.182c-2.674-5.254-7.083-6.661-7.083-6.661
						s3.096-8.397,9.804-11.305c6.708-2.908,14.214-1.689,14.73-1.642c0.516,0.047,2.564,13.307,7.693,24.565
						c5.129,11.258,4.253,10.633,4.253,25.519c0,14.886-1.751,48.536-1.501,58.043c0.25,9.507-0.5,7.005-8.256,18.264
						c-7.756,11.258-34.651,40.843-35.589,41.969c-0.938,1.126,2.627,18.952,3.002,42.969c0.375,24.018,2.064,261.963,2.064,261.963
						H335.132L336.633,536.027z"/>
					<path id="XMLID_315_" style="fill:#FFFFFF;" d="M336.434,575.193h119.791c-0.025-2.205-0.047-3.943-0.066-5.14
						c-0.173-11.067-1.023-20.814-1.798-28.224H336.604L336.434,575.193z"/>
					<g id="XMLID_281_">
						<g id="XMLID_293_">
							<g id="XMLID_294_">
								<g id="XMLID_296_">
									<g id="XMLID_297_">
										<circle id="XMLID_298_" style="fill:#CECECE;" cx="396.01" cy="558.511" r="48.65"/>
										<circle id="XMLID_299_" style="fill:#F2F0ED;" cx="396.01" cy="558.511" r="44.357"/>
									</g>
								</g>
							</g>
						</g>
						<g id="XMLID_14010_">
							<path id="XMLID_14012_" style="fill:#EC1A03;" d="M422.91,534.782c-11.358-5.978-24.359,1.943-26.9,9.863
								c-2.541-7.92-15.542-15.841-26.9-9.863c-11.358,5.978-15.542,25.256,1.345,37.211c16.887,11.956,25.555,23.313,25.555,23.313
								s8.668-11.358,25.555-23.313C438.452,560.038,434.268,540.76,422.91,534.782z"/>
							<path id="XMLID_14013_" style="fill:#EDF1F4;" d="M430.708,561.521c-5.205,0-10.411,0-15.616,0c-2.731,0-5.813,0.403-8.519,0
								c-0.974-0.145-0.396,0.121-1.072-1.029c-0.78-1.326-1.559-2.651-2.339-3.977c-0.341-0.58-2.305,0.931-2.484,1.277
								c-1.641,3.185-3.282,6.371-4.923,9.556c-1.782-6.536-3.564-13.071-5.346-19.607c-0.152-0.556-2.336,0.966-2.484,1.277
								c-1.978,4.168-3.956,8.335-5.934,12.503c-6.893,0-13.786,0-20.678,0c0.274,0.576,0.568,1.149,0.899,1.717
								c6.454,0,12.908,0,19.362,0c0.663,0,1.911-0.749,2.198-1.353c1.592-3.355,3.184-6.71,4.777-10.065
								c1.764,6.471,3.528,12.941,5.293,19.412c0.154,0.567,2.331-0.981,2.484-1.277c1.732-3.362,3.464-6.725,5.196-10.087
								c0.708,1.447,1.555,3.032,2.643,3.37c0.806,0.25,2.103,0,2.939,0c1.722,0,3.444,0,5.165,0c5.847,0,11.693,0,17.54,0
								C430.14,562.67,430.434,562.097,430.708,561.521z"/>
						</g>
					</g>
				</g>
			</g>
			<g id="XMLID_620_">
				
					<text id="XMLID_621_" transform="matrix(1 0 0 1 407.4637 310.2046)" style="fill:#26869E; font-family:'CaviarDreams'; font-size:49.4884px;">01</text>
			</g>
			<g id="XMLID_418_">
				
					<text id="XMLID_419_" transform="matrix(1 0 0 1 543.1785 391.8613)" style="fill:#26869E; font-family:'CaviarDreams'; font-size:49.4884px;">02</text>
			</g>
			<g id="XMLID_469_">
				
					<text id="XMLID_471_" transform="matrix(1 0 0 1 267.8148 348.9209)" style="fill:#26869E; font-family:'CaviarDreams'; font-size:49.4884px;">07</text>
			</g>
			<g id="XMLID_461_">
				
					<text id="XMLID_463_" transform="matrix(1 0 0 1 175.0115 476.4706)" style="fill:#26869E; font-family:'CaviarDreams'; font-size:49.4884px;">06</text>
			</g>
			<g id="XMLID_445_">
				
					<text id="XMLID_447_" transform="matrix(1 0 0 1 478.0291 674.5225)" style="fill:#26869E; font-family:'CaviarDreams'; font-size:49.4884px;">04</text>
			</g>
			<g id="XMLID_451_">
				
					<text id="XMLID_453_" transform="matrix(1 0 0 1 205.1732 612.7783)" style="fill:#26869E; font-family:'CaviarDreams'; font-size:49.4884px;">05</text>
			</g>
			<g id="XMLID_439_">
				
					<text id="XMLID_441_" transform="matrix(1 0 0 1 575.2928 543.9775)" style="fill:#26869E; font-family:'CaviarDreams'; font-size:49.4884px;">03</text>
			</g>
		</g>
		<g id="XMLID_71_">
			<g id="XMLID_430_">
				
					<text id="XMLID_431_" transform="matrix(1 0 0 1 306.4868 103.9414)" style="font-family:'CaviarDreams'; font-size:25.9662px;">design elements</text>
			</g>
			
				<linearGradient id="XMLID_00000163048919556110239700000015595707074468910774_" gradientUnits="userSpaceOnUse" x1="170.4486" y1="77.426" x2="629.5514" y2="77.426">
				<stop  offset="0" style="stop-color:#252F31"/>
				<stop  offset="0.173" style="stop-color:#244B53"/>
				<stop  offset="0.4375" style="stop-color:#227180"/>
				<stop  offset="0.6731" style="stop-color:#208DA1"/>
				<stop  offset="0.8686" style="stop-color:#1F9EB6"/>
				<stop  offset="1" style="stop-color:#1FA4BD"/>
			</linearGradient>
			
				<rect id="XMLID_428_" x="170.449" y="76.868" style="fill:url(#XMLID_00000163048919556110239700000015595707074468910774_);" width="459.103" height="1.116"/>
			<g id="XMLID_68_">
				<g id="XMLID_433_">
					
						<text id="XMLID_434_" transform="matrix(1 0 0 1 388.9751 62.5069)" style="fill:#C62A2A; font-family:'CaviarDreams'; font-size:38.2555px;">INFOGRAPHIC</text>
				</g>
				
					<text id="XMLID_72_" transform="matrix(1 0 0 1 170.5835 63.0606)" style="fill:#DE424D; font-family:'BebasNeueRegular'; font-size:42.3069px;">FITNESS &amp; SPORT</text>
			</g>
		</g>
	</g>
</g>
</svg>
