<svg width="100" height="127" viewBox="0 0 100 127" fill="none" xmlns="http://www.w3.org/2000/svg">
<g id="Group">
<g id="Group_2">
<g id="Group_3">
<g id="Group_4">
<path id="Vector" d="M41.1253 103.939L0.373047 120.174L0.414659 60.273L41.1253 43.4541V103.939Z" fill="#34507B"/>
<g id="Group_5">
<path id="Vector_2" d="M50.7499 108.872L9.58154 125.903V65.4198L50.7499 48.3877V108.872Z" fill="#34507B"/>
</g>
<path id="Vector_3" d="M45.4168 80.0634L16.582 91.9917V71.9284L45.4168 60V80.0634Z" fill="white"/>
<g id="Group_6">
<path id="Vector_4" d="M41.9638 68.6214L20.376 77.8171V75.0118L41.9638 65.8164V68.6214Z" fill="#D1D3D4"/>
<path id="Vector_5" d="M40.8589 73.6957L21.48 81.9563V79.1507L40.8589 70.8906V73.6957Z" fill="#D1D3D4"/>
<path id="Vector_6" d="M37.9418 79.7162L24.397 85.5896V82.7839L37.9418 76.9121V79.7162Z" fill="#D1D3D4"/>
</g>
<g id="Group_7">
<g id="Group_8">
<path id="Vector_7" d="M8.01465 64.6729L9.55369 65.4092L48.8883 49.1728L47.3506 48.4365L8.01465 64.6729Z" fill="white"/>
<g id="Group_9">
<path id="Vector_8" d="M7.81084 65.0066C8.68914 65.4279 9.24467 65.9555 10.1436 65.584C11.2756 65.1174 12.4073 64.6493 13.5387 64.1827C18.0161 62.3347 22.4945 60.486 26.9725 58.6379C34.3457 55.5941 41.7194 52.551 49.0926 49.5078C49.3686 49.3934 49.3456 48.9615 49.0926 48.841C48.2136 48.4197 47.6587 47.8924 46.7605 48.2636C45.6284 48.7301 44.4974 49.1983 43.3654 49.6648C38.8873 51.5129 34.4089 53.3613 29.9315 55.2096C22.5571 58.2534 15.184 61.2966 7.81084 64.3397C7.33245 64.5368 7.74555 65.203 8.21853 65.0066C15.1028 62.1657 21.986 59.3245 28.8695 56.4836C33.4051 54.6113 37.9414 52.739 42.4766 50.8667C43.8022 50.3201 45.1277 49.7727 46.4533 49.2261C47.855 48.6478 47.2653 48.8284 48.6849 49.5078C48.6849 49.2855 48.6849 49.0629 48.6849 48.841C41.8006 51.6819 34.9174 54.5228 28.0339 57.364C23.4983 59.2363 18.9624 61.1086 14.4275 62.9805C13.1012 63.5275 11.7763 64.0748 10.4501 64.6215C9.04979 65.1998 9.63881 65.0192 8.21853 64.3397C7.75401 64.1175 7.34429 64.784 7.81084 65.0066Z" fill="#EACCB7"/>
</g>
</g>
<g id="Group_10">
<path id="Vector_9" d="M6.47998 63.9385L8.01801 64.6749L47.3537 48.4394L45.8153 47.7031L6.47998 63.9385Z" fill="white"/>
<g id="Group_11">
<path id="Vector_10" d="M6.27584 64.2714C7.15481 64.6924 7.70966 65.2197 8.60859 64.8488C9.74062 64.3816 10.8723 63.9147 12.0037 63.4472C16.4817 61.5988 20.9601 59.7508 25.4375 57.9027C32.8106 54.8596 40.1851 51.8154 47.5589 48.772C47.8346 48.6582 47.8113 48.2263 47.5589 48.1051C46.6799 47.6845 46.1244 47.1572 45.2258 47.5281C44.0938 47.9953 42.9628 48.4625 41.8307 48.9296C37.3527 50.7783 32.8743 52.6261 28.3969 54.4741C21.0231 57.5176 13.6493 60.5608 6.27618 63.6045C5.79778 63.8016 6.21088 64.4672 6.68386 64.2714C13.5681 61.4305 20.4513 58.5886 27.3349 55.7477C31.8711 53.8754 36.4067 52.0038 40.9419 50.1318C42.2675 49.5849 43.5931 49.0375 44.9186 48.4902C46.3203 47.9122 45.7306 48.0925 47.1502 48.772C47.1502 48.5497 47.1502 48.3271 47.1502 48.1051C40.2666 50.9467 33.3834 53.7876 26.4992 56.6291C21.9636 58.5007 17.4284 60.373 12.8928 62.2447C11.5666 62.792 10.2417 63.3396 8.91545 63.8866C7.51445 64.4653 8.10415 64.284 6.68386 63.6045C6.219 63.3816 5.80929 64.0478 6.27584 64.2714Z" fill="#EACCB7"/>
</g>
</g>
<g id="Group_12">
<path id="Vector_11" d="M4.94873 63.1964L6.48709 63.9327L45.8214 47.6973L44.2844 46.9609L4.94873 63.1964Z" fill="white"/>
<g id="Group_13">
<path id="Vector_12" d="M4.74541 63.5289C5.62303 63.9499 6.17856 64.4772 7.07681 64.1056C8.20952 63.6391 9.34054 63.1716 10.4726 62.7044C14.95 60.8563 19.4284 59.0083 23.9058 57.1602C31.2789 54.1171 38.6527 51.0736 46.0258 48.0298C46.3018 47.9154 46.2788 47.4844 46.0258 47.363C45.1475 46.942 44.5933 46.4147 43.6951 46.7863C42.563 47.2528 41.4313 47.7203 40.2993 48.1875C35.8219 50.0359 31.3435 51.8836 26.8654 53.7316C19.4916 56.7751 12.1185 59.8183 4.74541 62.8621C4.26702 63.0592 4.68012 63.7247 5.1531 63.5289C12.0367 60.688 18.9205 57.8468 25.8041 55.0053C30.3397 53.1336 34.8756 51.2616 39.4112 49.3894C40.7367 48.8424 42.0623 48.2951 43.3879 47.7481C44.7882 47.1704 44.1985 47.3507 45.6181 48.0298C45.6181 47.8075 45.6181 47.5852 45.6181 47.363C38.7339 50.2042 31.8506 53.0451 24.9671 55.8866C20.4322 57.7583 15.8963 59.6302 11.3614 61.5022C10.0351 62.0495 8.71024 62.5971 7.38401 63.1438C5.98301 63.7221 6.57271 63.5415 5.1531 62.8621C4.6879 62.6391 4.27819 63.3057 4.74541 63.5289Z" fill="#EACCB7"/>
</g>
</g>
<g id="Group_14">
<path id="Vector_13" d="M3.41162 62.4542L4.94999 63.1905L44.2856 46.9557L42.7473 46.2188L3.41162 62.4542Z" fill="white"/>
<g id="Group_15">
<path id="Vector_14" d="M3.20833 62.7882C4.08662 63.2082 4.64147 63.7355 5.5404 63.3643C6.67243 62.8977 7.80413 62.4302 8.93616 61.9631C13.4136 60.115 17.8913 58.267 22.37 56.4189C29.7431 53.3757 37.1162 50.3323 44.49 47.2891C44.7654 47.1751 44.7431 46.7431 44.49 46.6223C43.6111 46.2016 43.0562 45.6734 42.1573 46.0449C41.0252 46.5114 39.8936 46.9796 38.7615 47.4461C34.2841 49.2945 29.8064 51.1422 25.3277 52.9909C17.9545 56.0341 10.5814 59.0772 3.20833 62.1214C2.72993 62.3181 3.14303 62.9834 3.61533 62.7882C10.4996 59.947 17.3828 57.1055 24.2663 54.2646C28.8019 52.3926 33.3378 50.5203 37.8734 48.648C39.199 48.101 40.5245 47.554 41.8501 47.0074C43.2511 46.4291 42.6614 46.6097 44.0823 47.2891C44.0823 47.0668 44.0823 46.8445 44.0823 46.6223C37.1981 49.4632 30.3149 52.3044 23.4313 55.1453C18.8958 57.0169 14.3602 58.8889 9.82427 60.7609C8.49871 61.3082 7.17315 61.8551 5.8476 62.4018C4.4466 62.9801 5.0363 62.7995 3.61533 62.1214C3.15081 61.8981 2.7411 62.565 3.20833 62.7882Z" fill="#EACCB7"/>
</g>
</g>
<g id="Group_16">
<path id="Vector_15" d="M1.93652 61.7195L3.47556 62.4561L42.8102 46.2197L41.2719 45.4844L1.93652 61.7195Z" fill="white"/>
<g id="Group_17">
<path id="Vector_16" d="M1.7324 62.0523C2.61069 62.4733 3.16622 63.0009 4.06515 62.6297C5.19718 62.1628 6.32888 61.695 7.46091 61.2281C11.9383 59.3801 16.4167 57.5317 20.8941 55.6833C28.2679 52.6398 35.641 49.5964 43.0148 46.5532C43.2909 46.4388 43.2678 46.0072 43.0148 45.8864C42.1358 45.4657 41.5803 44.9384 40.682 45.3093C39.55 45.7765 38.419 46.2437 37.2869 46.7109C32.8089 48.5589 28.3305 50.4073 23.8531 52.2557C16.4793 55.2988 9.10619 58.342 1.7324 61.3855C1.25468 61.5822 1.6671 62.2484 2.14076 62.0523C9.02431 59.2111 15.9075 56.3702 22.7911 53.529C27.3267 51.6567 31.8629 49.7851 36.3982 47.9128C37.7237 47.3661 39.0493 46.8188 40.3748 46.2715C41.7758 45.6935 41.1868 45.8744 42.6064 46.5532C42.6064 46.3309 42.6064 46.1087 42.6064 45.8864C35.7229 48.7273 28.8396 51.5685 21.9561 54.4094C17.4205 56.2817 12.8849 58.154 8.34901 60.0262C7.02346 60.5729 5.69858 61.1202 4.37235 61.6669C2.97134 62.2455 3.56104 62.0646 2.14076 61.3855C1.67624 61.1629 1.26585 61.8291 1.7324 62.0523Z" fill="#EACCB7"/>
</g>
</g>
<g id="Group_18">
<path id="Vector_17" d="M0.416504 60.9734L1.95419 61.7097L41.2902 45.4746L39.7511 44.7383L0.416504 60.9734Z" fill="white"/>
<g id="Group_19">
<path id="Vector_18" d="M0.212262 61.3059C1.09123 61.7266 1.64608 62.2538 2.54434 61.8829C3.67637 61.4161 4.80807 60.9486 5.9401 60.4814C10.4175 58.6333 14.8959 56.7856 19.374 54.9372C26.7477 51.8941 34.1209 48.8503 41.494 45.8068C41.77 45.6931 41.7477 45.2614 41.494 45.14C40.6157 44.7196 40.0608 44.1923 39.1619 44.5632C38.0299 45.0301 36.8982 45.4973 35.7661 45.9648C31.2887 47.8129 26.8103 49.6609 22.3323 51.509C14.9592 54.5521 7.58605 57.5959 0.212262 60.6391C-0.265452 60.8361 0.147643 61.5017 0.619944 61.3059C7.50418 58.465 14.3874 55.6238 21.2709 52.7829C25.8065 50.9106 30.3424 49.039 34.878 47.1667C36.2036 46.6194 37.5291 46.0724 38.8547 45.526C40.255 44.9474 39.666 45.128 41.0863 45.8068C41.0863 45.5845 41.0863 45.3622 41.0863 45.14C34.2027 47.9812 27.3188 50.8224 20.4353 53.6633C15.8997 55.5356 11.3638 57.4072 6.8282 59.2795C5.50265 59.8265 4.17709 60.3738 2.85153 60.9201C1.45053 61.4988 2.04023 61.3185 0.619944 60.6391C0.155424 60.4161 -0.254288 61.0827 0.212262 61.3059Z" fill="#EACCB7"/>
</g>
</g>
</g>
<g id="Group_20">
<path id="Vector_19" d="M9.58679 125.903L0.388755 121.537L0.37793 60.9775L9.58171 65.4138L9.58679 125.903Z" fill="#34507B"/>
</g>
<path id="Vector_20" d="M6.17463 121.959L2.71627 120.317L2.71289 66.5703L6.1726 68.2384L6.17463 121.959Z" fill="white"/>
</g>
<g id="Group_21">
<path id="Vector_21" d="M60.318 103.939L19.5654 120.174L19.607 60.273L60.318 43.4541V103.939Z" fill="#217CAF"/>
<g id="Group_22">
<path id="Vector_22" d="M69.9433 108.872L28.7739 125.903V65.4198L69.9433 48.3877V108.872Z" fill="#217CAF"/>
</g>
<path id="Vector_23" d="M64.6098 80.0634L35.7744 91.9917V71.9284L64.6098 60V80.0634Z" fill="white"/>
<g id="Group_23">
<path id="Vector_24" d="M61.1567 68.6214L39.5679 77.8171V75.0118L61.1567 65.8164V68.6214Z" fill="#D1D3D4"/>
<path id="Vector_25" d="M60.0511 73.6957L40.6729 81.9563V79.1507L60.0511 70.8906V73.6957Z" fill="#D1D3D4"/>
<path id="Vector_26" d="M57.1349 79.7162L43.5894 85.5896V82.7839L57.1349 76.9121V79.7162Z" fill="#D1D3D4"/>
</g>
<g id="Group_24">
<g id="Group_25">
<path id="Vector_27" d="M27.2744 64.6749L28.8131 65.4112L68.1481 49.1748L66.6097 48.4385L27.2744 64.6749Z" fill="white"/>
<g id="Group_26">
<path id="Vector_28" d="M27.0706 65.0067C27.9489 65.428 28.5038 65.9556 29.4027 65.5841C30.5347 65.1176 31.6664 64.6494 32.7984 64.1829C37.2758 62.3348 41.7542 60.4861 46.2323 58.6381C53.6054 55.5943 60.9785 52.5511 68.3523 49.5079C68.6277 49.3936 68.6054 48.9616 68.3523 48.8411C67.4733 48.4198 66.9185 47.8922 66.0196 48.2637C64.8875 48.7303 63.7555 49.1984 62.6245 49.665C58.1464 51.513 53.6687 53.3614 49.1899 55.2098C41.8168 58.2536 34.4437 61.2967 27.0706 64.3399C26.5922 64.537 27.0053 65.2032 27.4783 65.0067C34.3618 62.1658 41.2451 59.3246 48.1286 56.4837C52.6642 54.6114 57.2001 52.7391 61.7357 50.8669C63.0613 50.3202 64.3868 49.7729 65.7124 49.2262C67.1134 48.6479 66.5243 48.8285 67.9446 49.5079C67.9446 49.2857 67.9446 49.0631 67.9446 48.8411C61.0604 51.682 54.1772 54.5229 47.2936 57.3641C42.758 59.2364 38.2221 61.1087 33.6866 62.9807C32.361 63.5276 31.0354 64.0749 29.7099 64.6216C28.3089 65.1999 28.8986 65.0193 27.4783 64.3399C27.0138 64.1176 26.6034 64.7841 27.0706 65.0067Z" fill="#EACCB7"/>
</g>
</g>
<g id="Group_27">
<path id="Vector_29" d="M25.7388 63.9385L27.2778 64.6749L66.6135 48.4394L65.0751 47.7031L25.7388 63.9385Z" fill="white"/>
<g id="Group_28">
<path id="Vector_30" d="M25.5355 64.2714C26.4137 64.6924 26.9693 65.2197 27.8675 64.8488C29.0002 64.3816 30.1319 63.9147 31.2633 63.4472C35.7414 61.5988 40.2191 59.7508 44.6972 57.9027C52.0703 54.8596 59.4441 51.8154 66.8178 48.772C67.0939 48.6582 67.0709 48.2263 66.8178 48.1051C65.9396 47.6845 65.384 47.1572 64.4851 47.5281C63.3531 47.9953 62.222 48.4625 61.09 48.9296C56.6119 50.7783 52.1335 52.6261 47.6555 54.4741C40.2817 57.5176 32.9086 60.5608 25.5355 63.6045C25.0571 63.8016 25.4702 64.4672 25.9431 64.2714C32.8274 61.4305 39.7106 58.5886 46.5941 55.7477C51.1297 53.8754 55.6656 52.0038 60.2012 50.1318C61.5268 49.5849 62.8523 49.0375 64.1779 48.4902C65.5796 47.9122 64.9899 48.0925 66.4095 48.772C66.4095 48.5497 66.4095 48.3271 66.4095 48.1051C59.5259 50.9467 52.6427 53.7876 45.7585 56.6291C41.2229 58.5007 36.6877 60.373 32.1521 62.2447C30.8258 62.792 29.501 63.3396 28.1747 63.8866C26.7737 64.4653 27.3634 64.284 25.9431 63.6045C25.4786 63.3816 25.0689 64.0478 25.5355 64.2714Z" fill="#EACCB7"/>
</g>
</g>
<g id="Group_29">
<path id="Vector_31" d="M24.208 63.1964L25.7457 63.9327L65.082 47.6973L63.5437 46.9609L24.208 63.1964Z" fill="white"/>
<g id="Group_30">
<path id="Vector_32" d="M24.0039 63.5289C24.8822 63.9499 25.437 64.4772 26.3353 64.1056C27.4673 63.6391 28.5997 63.1716 29.7311 62.7044C34.2091 60.8563 38.6869 59.0083 43.1649 57.1602C50.5387 54.1171 57.9125 51.0736 65.2856 48.0298C65.5617 47.9154 65.5394 47.4844 65.2856 47.363C64.4073 46.942 63.8525 46.4147 62.9535 46.7863C61.8215 47.2528 60.6905 47.7203 59.5585 48.1875C55.0811 50.0359 50.602 51.8836 46.1246 53.7316C38.7508 56.7751 31.3777 59.8183 24.0039 62.8621C23.5262 63.0592 23.9386 63.7247 24.4116 63.5289C31.2958 60.688 38.1797 57.8468 45.0633 55.0053C49.5988 53.1336 54.1348 51.2616 58.6697 49.3894C59.9959 48.8424 61.3208 48.2951 62.647 47.7481C64.048 47.1704 63.4583 47.3507 64.8779 48.0298C64.8779 47.8075 64.8779 47.5852 64.8779 47.363C57.9944 50.2042 51.1105 53.0451 44.2269 55.8866C39.6913 57.7583 35.1554 59.6302 30.6198 61.5022C29.2936 62.0495 27.9687 62.5971 26.6432 63.1438C25.2422 63.7215 25.8312 63.5415 24.4116 62.8621C23.9474 62.6391 23.5377 63.3057 24.0039 63.5289Z" fill="#EACCB7"/>
</g>
</g>
<g id="Group_31">
<path id="Vector_33" d="M22.6714 62.4542L24.2091 63.1905L63.5454 46.9557L62.0064 46.2188L22.6714 62.4542Z" fill="white"/>
<g id="Group_32">
<path id="Vector_34" d="M22.4676 62.7882C23.3466 63.2086 23.9014 63.7355 24.7997 63.3643C25.9317 62.8977 27.063 62.4302 28.1954 61.9631C32.6728 60.115 37.1512 58.267 41.6293 56.4189C49.0031 53.3757 56.3762 50.3323 63.7493 47.2891C64.0254 47.1751 64.003 46.7431 63.7493 46.6223C62.871 46.2016 62.3155 45.6734 61.4172 46.0449C60.2852 46.5114 59.1528 46.9796 58.0215 47.4461C53.5441 49.2945 49.0657 51.1422 44.5876 52.9909C37.2145 56.0341 29.8414 59.0772 22.4676 62.1214C21.9892 62.3181 22.4023 62.9834 22.8753 62.7882C29.7595 59.947 36.6427 57.1055 43.5263 54.2646C48.0618 52.3926 52.5978 50.5203 57.1327 48.648C58.4589 48.101 59.7838 47.554 61.11 47.0074C62.511 46.4291 61.9213 46.6097 63.3416 47.2891C63.3416 47.0668 63.3416 46.8445 63.3416 46.6223C56.4581 49.4632 49.5742 52.3044 42.6906 55.1453C38.155 57.0169 33.6191 58.8889 29.0835 60.7609C27.758 61.3082 26.4324 61.8551 25.1069 62.4018C23.7058 62.9801 24.2956 62.8002 22.8753 62.1214C22.4107 61.8981 22.001 62.565 22.4676 62.7882Z" fill="#EACCB7"/>
</g>
</g>
<g id="Group_33">
<path id="Vector_35" d="M21.1294 61.7195L22.6678 62.4561L62.0034 46.2197L60.4644 45.4844L21.1294 61.7195Z" fill="white"/>
<g id="Group_34">
<path id="Vector_36" d="M20.9262 62.0523C21.8045 62.4733 22.36 63.0006 23.2583 62.6297C24.3903 62.1628 25.5214 61.695 26.6534 61.2281C31.1315 59.3801 35.6099 57.5317 40.0866 55.6833C47.4604 52.6398 54.8341 49.5964 62.2079 46.5532C62.484 46.4388 62.4603 46.0072 62.2079 45.8864C61.3283 45.4657 60.7728 44.9384 59.8748 45.3093C58.7428 45.7765 57.6118 46.2437 56.4798 46.7109C52.0024 48.5589 47.524 50.4073 43.0466 52.2557C35.6728 55.2988 28.2997 58.342 20.9266 61.3855C20.4482 61.5822 20.8613 62.2484 21.3342 62.0523C28.2185 59.2111 35.1017 56.3702 41.9846 53.529C46.5202 51.6567 51.0561 49.7851 55.591 47.9128C56.9172 47.3661 58.2421 46.8188 59.5683 46.2715C60.9687 45.6935 60.3796 45.8744 61.7992 46.5532C61.7992 46.3309 61.7992 46.1087 61.7992 45.8864C54.9157 48.7273 48.0325 51.5685 41.1489 54.4094C36.6133 56.2817 32.0774 58.154 27.5425 60.0262C26.2163 60.5729 24.8914 61.1202 23.5652 61.6669C22.1642 62.2455 22.7539 62.0646 21.3342 61.3855C20.8694 61.1629 20.4597 61.8287 20.9262 62.0523Z" fill="#EACCB7"/>
</g>
</g>
<g id="Group_35">
<path id="Vector_37" d="M19.6089 60.9734L21.1473 61.7097L60.4829 45.4746L58.9445 44.7383L19.6089 60.9734Z" fill="white"/>
<g id="Group_36">
<path id="Vector_38" d="M19.4054 61.3059C20.2837 61.7266 20.8392 62.2538 21.7372 61.8829C22.8692 61.4161 24.0002 60.9486 25.1322 60.4814C29.6096 58.6333 34.0887 56.7856 38.5661 54.9372C45.9399 51.8941 53.313 48.8503 60.6868 45.8068C60.9622 45.6931 60.9399 45.2614 60.6868 45.14C59.8078 44.7196 59.253 44.1923 58.354 44.5632C57.222 45.0301 56.0903 45.4973 54.9589 45.9648C50.4809 47.8129 46.0032 49.6609 41.5251 51.509C34.1513 54.5521 26.7782 57.5959 19.4051 60.6391C18.9267 60.8361 19.3398 61.5017 19.8128 61.3059C26.6963 58.465 33.5795 55.6238 40.4631 52.7829C44.9987 50.9106 49.5349 49.039 54.0702 47.1667C55.3957 46.6194 56.7213 46.0724 58.0468 45.526C59.4478 44.9474 58.8588 45.128 60.2791 45.8068C60.2791 45.5845 60.2791 45.3622 60.2791 45.14C53.3949 47.9812 46.511 50.8224 39.6274 53.6633C35.0918 55.5356 30.5559 57.4072 26.021 59.2795C24.6948 59.8265 23.3699 60.3738 22.0437 60.9201C20.6433 61.4988 21.2324 61.3185 19.8128 60.6391C19.3486 60.4161 18.9382 61.0827 19.4054 61.3059Z" fill="#EACCB7"/>
</g>
</g>
</g>
<g id="Group_37">
<path id="Vector_39" d="M28.7792 125.903L19.5808 121.537L19.5703 60.9775L28.7738 65.4138L28.7792 125.903Z" fill="#217CAF"/>
</g>
<path id="Vector_40" d="M25.5472 122.045L22.0885 120.403L22.0854 66.6562L25.5445 68.324L25.5472 122.045Z" fill="white"/>
</g>
<g id="Group_38">
<path id="Vector_41" d="M80.0708 103.939L39.3179 120.174L39.3595 60.273L80.0708 43.4541V103.939Z" fill="#53C5D1"/>
<g id="Group_39">
<g id="Group_40">
<path id="Vector_42" d="M47.0269 64.6729L48.5652 65.4092L87.9002 49.1728L86.3625 48.4365L47.0269 64.6729Z" fill="white"/>
<g id="Group_41">
<path id="Vector_43" d="M46.824 65.0066C47.7023 65.4279 48.2578 65.9552 49.1561 65.584C50.2881 65.1174 51.4192 64.6493 52.5512 64.1827C57.0286 62.3347 61.5077 60.486 65.9844 58.6379C73.3582 55.5941 80.7319 52.551 88.1057 49.5078C88.3815 49.3934 88.3581 48.9615 88.1057 48.841C87.2268 48.4197 86.6719 47.8924 85.773 48.2636C84.641 48.7301 83.5093 49.1983 82.3779 49.6648C77.8998 51.5129 73.4221 53.3613 68.944 55.2096C61.5703 58.2534 54.1971 61.2966 46.824 64.3397C46.3456 64.5368 46.7587 65.203 47.2317 65.0066C54.1153 62.1657 60.9985 59.3245 67.882 56.4836C72.4176 54.6113 76.9539 52.739 81.4891 50.8667C82.8147 50.3201 84.1402 49.7727 85.4658 49.2261C86.8668 48.6478 86.2778 48.8284 87.6967 49.5078C87.6967 49.2855 87.6967 49.0629 87.6967 48.841C80.8132 51.6819 73.9299 54.5228 67.0464 57.364C62.5108 59.2363 57.9749 61.1086 53.44 62.9805C52.1137 63.5275 50.7889 64.0748 49.4626 64.6215C48.0616 65.1998 48.651 65.0192 47.2317 64.3397C46.7672 64.1175 46.3568 64.7833 46.824 65.0066Z" fill="#EACCB7"/>
</g>
</g>
<g id="Group_42">
<path id="Vector_44" d="M45.4922 63.9385L47.0305 64.6749L86.3662 48.4394L84.8285 47.7031L45.4922 63.9385Z" fill="white"/>
<g id="Group_43">
<path id="Vector_45" d="M45.2879 64.2714C46.1669 64.6924 46.7224 65.2197 47.621 64.8488C48.753 64.3816 49.884 63.9147 51.0161 63.4472C55.4941 61.5988 59.9725 59.7508 64.4499 57.9027C71.8237 54.8596 79.1975 51.8154 86.5706 48.772C86.8467 48.6582 86.8237 48.2263 86.5706 48.1051C85.6917 47.6845 85.1368 47.1572 84.2385 47.5281C83.1065 47.9953 81.9755 48.4625 80.8435 48.9296C76.3647 50.7783 71.887 52.6261 67.4089 54.4741C60.0351 57.5176 52.6613 60.5608 45.2876 63.6045C44.8098 63.8016 45.2223 64.4672 45.6966 64.2714C52.5801 61.4305 59.464 58.5886 66.3476 55.7477C70.8832 53.8754 75.4191 52.0038 79.9547 50.1318C81.2796 49.5849 82.6058 49.0375 83.9313 48.4902C85.333 47.9122 84.7433 48.0925 86.1629 48.772C86.1629 48.5497 86.1629 48.3271 86.1629 48.1051C79.2787 50.9467 72.3948 53.7876 65.5113 56.6291C60.9757 58.5007 56.4398 60.373 51.9048 62.2447C50.5793 62.792 49.2537 63.3396 47.9282 63.8866C46.5265 64.4653 47.1155 64.284 45.6966 63.6045C45.2317 63.3816 44.822 64.0478 45.2879 64.2714Z" fill="#EACCB7"/>
</g>
</g>
<g id="Group_44">
<path id="Vector_46" d="M43.9609 63.1964L45.5 63.9327L84.8346 47.6973L83.2976 46.9609L43.9609 63.1964Z" fill="white"/>
<g id="Group_45">
<path id="Vector_47" d="M43.7571 63.5289C44.6354 63.9496 45.1909 64.4772 46.0899 64.1056C47.2219 63.6391 48.3536 63.1716 49.485 62.7044C53.9624 60.8563 58.4408 59.0083 62.9188 57.1602C70.2919 54.1171 77.6657 51.0736 85.0388 48.0298C85.3149 47.9154 85.2919 47.4844 85.0388 47.363C84.1605 46.942 83.6064 46.4147 82.7074 46.7863C81.5754 47.2528 80.4437 47.7203 79.3117 48.1875C74.8336 50.0359 70.3559 51.8836 65.8778 53.7316C58.504 56.7751 51.1302 59.8183 43.7571 62.8621C43.2787 63.0592 43.6918 63.7247 44.1648 63.5289C51.049 60.688 57.9323 57.8468 64.8158 55.0053C69.3514 53.1336 73.8877 51.2616 78.4236 49.3894C79.7491 48.8424 81.0747 48.2951 82.3996 47.7481C83.8012 47.1704 83.2115 47.3507 84.6312 48.0298C84.6312 47.8075 84.6312 47.5852 84.6312 47.363C77.7469 50.2042 70.8637 53.0451 63.9802 55.8866C59.4446 57.7583 54.9087 59.6302 50.3737 61.5022C49.0475 62.0495 47.7226 62.5971 46.3964 63.1438C44.9961 63.7221 45.5848 63.5415 44.1648 62.8621C43.7003 62.6391 43.2906 63.3057 43.7571 63.5289Z" fill="#EACCB7"/>
</g>
</g>
<g id="Group_46">
<path id="Vector_48" d="M42.4243 62.4542L43.9627 63.1905L83.298 46.9557L81.7596 46.2188L42.4243 62.4542Z" fill="white"/>
<g id="Group_47">
<path id="Vector_49" d="M42.2197 62.7882C43.098 63.2086 43.6535 63.7355 44.5524 63.3643C45.6845 62.8977 46.8162 62.4302 47.9475 61.9631C52.4256 60.115 56.904 58.267 61.3814 56.4189C68.7545 53.3757 76.1283 50.3323 83.5021 47.2891C83.7782 47.1751 83.7552 46.7431 83.5021 46.6223C82.6238 46.2016 82.0683 45.6734 81.1693 46.0449C80.0373 46.5114 78.9063 46.9796 77.7742 47.4461C73.2962 49.2945 68.8178 51.1422 64.3404 52.9909C56.9666 56.0341 49.5935 59.0772 42.2197 62.1214C41.742 62.3181 42.1544 62.9834 42.6281 62.7882C49.5116 59.947 56.3948 57.1055 63.2784 54.2646C67.814 52.3926 72.3499 50.5203 76.8855 48.648C78.211 48.101 79.5366 47.554 80.8621 47.0074C82.2638 46.4291 81.6741 46.6097 83.0937 47.2891C83.0937 47.0668 83.0937 46.8445 83.0937 46.6223C76.2102 49.4632 69.3269 52.3044 62.4427 55.1453C57.9071 57.0169 53.3719 58.8889 48.8363 60.7609C47.5101 61.3082 46.1852 61.8551 44.859 62.4018C43.4586 62.9801 44.0477 62.8002 42.6281 62.1214C42.1635 61.8981 41.7532 62.565 42.2197 62.7882Z" fill="#EACCB7"/>
</g>
</g>
<g id="Group_48">
<path id="Vector_50" d="M40.8838 61.7195L42.4222 62.4561L81.7578 46.2197L80.2188 45.4844L40.8838 61.7195Z" fill="white"/>
<g id="Group_49">
<path id="Vector_51" d="M40.6785 62.0523C41.5575 62.4733 42.113 63.0009 43.0116 62.6297C44.1436 62.1628 45.2747 61.695 46.4067 61.2281C50.8848 59.3801 55.3632 57.5317 59.8406 55.6833C67.2144 52.6398 74.5875 49.5964 81.9612 46.5532C82.2373 46.4388 82.2143 46.0072 81.9612 45.8864C81.0823 45.4657 80.5268 44.9384 79.6282 45.3093C78.4961 45.7765 77.3651 46.2437 76.2331 46.7109C71.7557 48.5589 67.2766 50.4073 62.7999 52.2557C55.4261 55.2988 48.0523 58.342 40.6785 61.3855C40.2008 61.5822 40.6139 62.2484 41.0876 62.0523C47.9711 59.2111 54.8547 56.3702 61.7379 53.529C66.2735 51.6567 70.8094 49.7851 75.3443 47.9128C76.6705 47.3661 77.9954 46.8188 79.3216 46.2715C80.722 45.6935 80.1329 45.8744 81.5526 46.5532C81.5526 46.3309 81.5526 46.1087 81.5526 45.8864C74.669 48.7273 67.7865 51.5685 60.9029 54.4094C56.3666 56.2817 51.8311 58.154 47.2958 60.0262C45.9703 60.5729 44.6447 61.1202 43.3192 61.6669C41.9175 62.2455 42.5072 62.0646 41.0876 61.3855C40.6224 61.1629 40.2127 61.8291 40.6785 62.0523Z" fill="#EACCB7"/>
</g>
</g>
<g id="Group_50">
<path id="Vector_52" d="M39.3623 60.9734L40.9 61.7097L80.2357 45.4746L78.698 44.7383L39.3623 60.9734Z" fill="white"/>
<g id="Group_51">
<path id="Vector_53" d="M39.1585 61.306C40.0368 61.7273 40.5916 62.2539 41.4899 61.883C42.6219 61.4162 43.7536 60.9487 44.885 60.4815C49.3631 58.6334 53.8408 56.7857 58.3188 54.9373C65.6926 51.8942 73.0657 48.8504 80.4389 45.8069C80.7149 45.6928 80.6926 45.2615 80.4389 45.14C79.5606 44.7191 79.0057 44.1924 78.1075 44.5633C76.9754 45.0302 75.8437 45.4974 74.7124 45.9649C70.2343 47.8129 65.7566 49.661 61.2785 51.509C53.9047 54.5522 46.5316 57.596 39.1585 60.6391C38.6801 60.8362 39.0932 61.5018 39.5662 61.306C46.4504 58.4651 53.3336 55.6239 60.2165 52.783C64.7528 50.9107 69.2884 49.039 73.8236 47.1668C75.1492 46.6195 76.4747 46.0725 77.8003 45.5261C79.2013 44.9475 78.6122 45.1278 80.0312 45.8069C80.0312 45.5846 80.0312 45.3623 80.0312 45.14C73.1476 47.9813 66.2644 50.8225 59.3808 53.6634C54.8453 55.5357 50.309 57.4073 45.7738 59.2796C44.4482 59.8266 43.1227 60.3739 41.7971 60.9202C40.3961 61.4989 40.9851 61.3186 39.5662 60.6391C39.1017 60.4162 38.6923 61.0827 39.1585 61.306Z" fill="#EACCB7"/>
</g>
</g>
</g>
<g id="Group_52">
<path id="Vector_54" d="M48.5323 125.903L39.3335 121.537L39.3237 60.9775L48.5272 65.4138L48.5323 125.903Z" fill="#53C5D1"/>
</g>
<path id="Vector_55" d="M45.1208 121.959L41.6624 120.317L41.6577 66.5703L45.1184 68.2384L45.1208 121.959Z" fill="white"/>
<g id="Group_53">
<path id="Vector_56" d="M89.6964 108.872L48.5273 125.903V65.4198L89.6964 48.3877V108.872Z" fill="#53C5D1"/>
</g>
</g>
</g>
<g id="Group_54">
<path id="Vector_57" d="M61.293 106.811C61.293 97.1022 69.5335 89.2314 79.6999 89.2314C89.8662 89.2314 98.1074 97.1022 98.1074 106.811C98.1074 116.519 89.8662 124.389 79.6999 124.389C69.5335 124.389 61.293 116.519 61.293 106.811Z" fill="white"/>
<g id="Group_55">
<path id="Vector_58" d="M63.1815 106.811C63.3665 98.0775 70.5559 91.2112 79.7005 91.0342C88.8458 90.8575 96.0406 98.3434 96.2202 106.811C96.4053 115.543 88.5677 122.415 79.7005 122.586C70.5559 122.763 63.3614 115.278 63.1815 106.811C63.1324 104.489 59.3567 104.484 59.4057 106.811C59.6324 117.522 68.4844 125.975 79.7005 126.192C90.9173 126.409 99.776 117.196 99.9959 106.811C100.223 96.0992 90.5763 87.6389 79.7005 87.4285C68.4844 87.2124 59.6257 96.4252 59.4057 106.811C59.357 109.136 63.1327 109.133 63.1815 106.811Z" fill="#217CAF"/>
</g>
</g>
<path id="Vector_59" d="M85.2345 108.214V94.3721H75.213V108.214H71.4678L80.3295 120.101L88.9812 108.214H85.2345Z" fill="#34507B"/>
</g>
<path id="Vector_60" d="M39.3636 20.0634L10.5278 31.9917V11.9284L39.3636 0V20.0634Z" fill="white"/>
</g>
</svg>
