<svg width="100" height="83" viewBox="0 0 100 83" fill="none" xmlns="http://www.w3.org/2000/svg">
<g id="Group">
<path id="Vector" d="M45.3069 25.8558H61.9086C63.8595 25.8558 65.4426 24.3026 65.4426 22.3876V3.47184C65.4426 1.55317 63.8595 0 61.9086 0H26.1482C24.1959 0 22.6167 1.55317 22.6167 3.47184V22.3876C22.6167 24.3027 24.1959 25.8558 26.1482 25.8558H40.5214L40.0471 31.7953L45.3069 25.8558Z" fill="#616E7D"/>
<path id="Vector_2" d="M77.383 31.8817V18.9352C77.383 17.7343 76.395 16.7637 75.1749 16.7637H67.04V23.5912C67.04 25.6495 65.3307 27.3275 63.2331 27.3275H52.5005V31.8817C52.5005 33.0791 53.4892 34.0523 54.7131 34.0523H65.623L68.9114 37.7701L68.6151 34.0523H75.1748C76.395 34.0523 77.383 33.0791 77.383 31.8817Z" fill="#AAD4C8"/>
<path id="Vector_3" d="M18.8179 53.2124C18.8179 58.4122 22.5808 62.6263 27.221 62.6263C31.8621 62.6263 35.6258 58.4122 35.6258 53.2124C35.6258 48.0081 31.8621 43.7939 27.221 43.7939C22.5806 43.7941 18.8179 48.0081 18.8179 53.2124Z" fill="#616E7D"/>
<path id="Vector_4" d="M67.7014 63.5148C65.865 63.5148 64.1855 64.222 62.8447 65.3938C66.232 67.7446 68.5106 71.9018 68.5922 76.663H85.3287V72.3655C85.3287 67.4794 81.7916 63.5146 77.4306 63.5146H67.7014V63.5148ZM74.6469 69.218L76.2292 70.9275L72.5659 75.3823L68.9009 70.9275L70.4826 69.218C70.4826 69.218 68.1327 66.8319 68.026 66.6237C67.8378 66.2556 69.4735 65.0231 69.4735 65.0231L72.5659 75.3823L75.6546 65.0231C75.6546 65.0231 77.291 66.2556 77.1012 66.6237C76.9993 66.832 74.6469 69.218 74.6469 69.218Z" fill="#616E7D"/>
<path id="Vector_5" d="M14.4556 72.3655V76.663H31.2242C31.3051 71.9103 33.5765 67.7577 36.956 65.407C35.6144 64.2255 33.9263 63.5146 32.0844 63.5146H22.3561C17.9942 63.5146 14.4556 67.4794 14.4556 72.3655ZM31.6281 64.4529C31.8084 64.4529 31.988 64.4653 32.1651 64.4811L30.3531 75.1415H29.1839L28.2094 67.9756H28.178L29.133 66.0061H25.3082L26.2632 67.9756H26.231L25.2571 75.1415H24.0905L22.2783 64.4811C22.4556 64.4653 22.6351 64.4529 22.8162 64.4529H31.6281Z" fill="#616E7D"/>
<path id="Vector_6" d="M28.2097 67.9748L29.1843 75.1407H30.3534L32.1654 64.4803C31.9882 64.4645 31.8088 64.4521 31.6284 64.4521H22.8167C22.6356 64.4521 22.456 64.4645 22.2788 64.4803L24.0909 75.1407H25.2576L26.2315 67.9748H26.2636L25.3087 66.0053H29.1335L28.1785 67.9748H28.2097Z" fill="white"/>
<path id="Vector_7" d="M38.5117 50.99C38.5117 58.0319 43.6083 63.7377 49.8929 63.7377C56.1759 63.7377 61.2718 58.0319 61.2718 50.99C61.2718 43.9506 56.176 38.2412 49.8929 38.2412C43.6083 38.2414 38.5117 43.9506 38.5117 50.99Z" fill="#616E7D"/>
<path id="Vector_8" d="M48.5992 70.9789L47.3047 68.3145L48.5992 70.9789Z" fill="#616E7D"/>
<path id="Vector_9" d="M43.3069 64.9424C37.3978 64.9424 32.6118 70.3063 32.6118 76.9259V82.7416H67.1763V76.9259C67.1763 70.3065 62.387 64.9424 56.4789 64.9424H43.3069ZM54.1337 80.685H52.553H47.2337H45.6545L43.2003 66.2495C43.4449 66.2302 43.684 66.2073 43.9271 66.2073H55.8602C56.1033 66.2073 56.3455 66.2301 56.5855 66.2495L54.1337 80.685Z" fill="#616E7D"/>
<path id="Vector_10" d="M51.2346 70.9792L52.5518 80.6847H54.1326L56.5844 66.2493C56.3445 66.23 56.1022 66.207 55.8592 66.207H43.926C43.6829 66.207 43.4438 66.2298 43.1992 66.2493L45.6534 80.6847H47.2326L48.553 70.9792H48.5994L47.3048 68.3147H52.4805L51.186 70.9792H51.2346Z" fill="white"/>
<path id="Vector_11" d="M47.2334 80.6845H52.5527L51.2355 70.9789H51.1867L52.4813 68.3145H47.3056L48.6001 70.9789H48.5539L47.2334 80.6845Z" fill="#AAD4C8"/>
<path id="Vector_12" d="M77.1011 66.6231C77.2909 66.255 75.6545 65.0225 75.6545 65.0225L72.5659 75.3817L76.2292 70.9268L74.6469 69.2173C74.6469 69.2173 76.9993 66.8312 77.1011 66.6231Z" fill="white"/>
<path id="Vector_13" d="M72.5658 75.3817L69.4733 65.0225C69.4733 65.0225 67.8376 66.255 68.0258 66.6231C68.1325 66.8312 70.4824 69.2173 70.4824 69.2173L68.9007 70.9268L72.5658 75.3817Z" fill="white"/>
<path id="Vector_14" d="M71.5552 43.6702C67.3296 43.9618 63.896 47.8105 63.635 52.5438C63.3292 58.0642 67.2348 62.6465 72.0954 62.6465C72.2539 62.6465 72.4075 62.6439 72.562 62.6333H82.6831L82.7238 62.4067C81.47 61.8269 80.573 60.2543 80.573 58.4008V53.3283H80.5706L80.573 53.1492C80.5731 47.7015 76.4841 43.3275 71.5552 43.6702Z" fill="#616E7D"/>
<path id="Vector_15" d="M0 68.5605V71.8531H12.8097C12.8724 68.2056 14.6178 65.0254 17.2085 63.2261C16.1852 62.3292 14.897 61.7881 13.4926 61.7881H6.04365C2.70583 61.7882 0 64.8208 0 68.5605ZM7.40337 62.9408L9.7682 70.8692L12.1354 62.9408C12.1354 62.9408 13.386 63.886 13.2441 64.1681C13.1611 64.3244 11.3639 66.1534 11.3639 66.1534L12.5761 67.4632L9.7682 70.8692L6.96507 67.4632L8.17658 66.1534C8.17658 66.1534 6.37856 64.3244 6.29629 64.1681C6.15352 63.886 7.40337 62.9408 7.40337 62.9408Z" fill="#616E7D"/>
<path id="Vector_16" d="M9.76805 70.8679L7.40322 62.9395C7.40322 62.9395 6.15337 63.8847 6.29601 64.1667C6.37828 64.3231 8.1763 66.152 8.1763 66.152L6.96479 67.4619L9.76805 70.8679Z" fill="white"/>
<path id="Vector_17" d="M13.244 64.1667C13.3859 63.8847 12.1352 62.9395 12.1352 62.9395L9.76807 70.8679L12.576 67.4619L11.3637 66.152C11.3637 66.152 13.1608 64.3231 13.244 64.1667Z" fill="white"/>
<path id="Vector_18" d="M3.00646 57.8956C3.00646 59.3046 2.32589 60.4994 1.37402 60.9378L1.40538 61.1108H9.09106L9.44462 61.1205C13.1385 61.1205 16.1032 57.6389 15.8735 53.4442C15.6728 49.8521 13.0632 46.9274 9.85623 46.707C6.11289 46.4442 3.00646 49.7684 3.00646 53.9052L3.00957 54.0433H3.00646V57.8956Z" fill="#616E7D"/>
<path id="Vector_19" d="M86.5037 61.7881C85.1033 61.7881 83.8143 62.3292 82.7886 63.2261C85.3816 65.0254 87.1254 68.2054 87.1866 71.8531H100V68.5605C100 64.8208 97.2934 61.7882 93.9525 61.7882L86.5037 61.7881ZM92.538 70.3385H91.6771L90.9597 65.0544H90.9338L91.6411 63.6038H91.6379H88.8199L89.5264 65.0544H89.4997L88.783 70.3385H87.9221L86.5859 62.4769C86.7169 62.4673 86.847 62.4541 86.982 62.4541H93.4782C93.6131 62.4541 93.7439 62.4673 93.8726 62.4769L92.538 70.3385Z" fill="#616E7D"/>
<path id="Vector_20" d="M83.8462 53.8458C83.8462 57.7947 86.705 60.9968 90.228 60.9968C93.7572 60.9968 96.6152 57.7947 96.6152 53.8458C96.6152 49.8944 93.7573 46.6914 90.228 46.6914C86.705 46.6913 83.8462 49.8943 83.8462 53.8458Z" fill="#616E7D"/>
<path id="Vector_21" d="M90.9598 65.0534L91.6772 70.3376H92.5381L93.8726 62.4759C93.7439 62.4663 93.6131 62.4531 93.4782 62.4531H86.982C86.8471 62.4531 86.7169 62.4663 86.5859 62.4759L87.9221 70.3376H88.783L89.4997 65.0534H89.5264L88.8199 63.6029H91.638H91.6411L90.9338 65.0534H90.9598Z" fill="white"/>
</g>
</svg>
