<svg width="153" height="102" viewBox="0 0 153 102" fill="none" xmlns="http://www.w3.org/2000/svg">
<path id="Line 1" d="M150.407 44.758C150.955 44.691 151.454 45.081 151.521 45.6292L152.613 54.5627C152.68 55.1109 152.29 55.6097 151.742 55.6767C151.194 55.7437 150.695 55.3536 150.628 54.8054L149.657 46.8645L141.716 47.8353C141.168 47.9023 140.669 47.5123 140.602 46.9641C140.535 46.4159 140.925 45.9171 141.473 45.8501L150.407 44.758ZM1.11888 0.975031C1.13282 0.422923 1.5917 -0.0133496 2.14381 0.000586457C2.69591 0.0145226 3.13219 0.473396 3.11825 1.0255L1.11888 0.975031ZM68.2509 100.499L68.2965 101.498L68.1591 101.504L68.0252 101.473L68.2509 100.499ZM11.045 65.2866L10.2856 65.9371L10.1564 65.7864L10.0947 65.5977L11.045 65.2866ZM121.348 83.0589L122.136 83.675L122.032 83.8074L121.891 83.8986L121.348 83.0589ZM104.685 93.8361L105.228 94.6758L105.117 94.7473L104.992 94.7877L104.685 93.8361ZM86.6524 99.66L86.9598 100.612L86.8321 100.653L86.698 100.659L86.6524 99.66ZM48.3145 95.878L48.0887 96.8522L47.9297 96.8153L47.7907 96.7299L48.3145 95.878ZM24.9329 81.5014L24.4091 82.3532L24.2755 82.271L24.1734 82.1519L24.9329 81.5014ZM1.25114 35.3623L0.300742 35.6733L0.247111 35.5094L0.251457 35.337L1.25114 35.3623ZM151.316 46.3667L151.012 46.7553L149.437 45.5231L149.741 45.1345L151.316 46.3667ZM150.404 47.5325L149.796 48.3098L148.221 47.0776L148.829 46.3004L150.404 47.5325ZM149.188 49.0871L148.58 49.8643L147.005 48.6322L147.613 47.8549L149.188 49.0871ZM147.972 50.6416L147.364 51.4188L145.789 50.1867L146.397 49.4094L147.972 50.6416ZM146.757 52.1961L146.149 52.9733L144.573 51.7412L145.181 50.9639L146.757 52.1961ZM145.541 53.7506L144.933 54.5279L143.357 53.2957L143.965 52.5184L145.541 53.7506ZM144.325 55.3051L143.717 56.0824L142.142 54.8502L142.75 54.073L144.325 55.3051ZM143.109 56.8596L142.501 57.6369L140.926 56.4047L141.534 55.6275L143.109 56.8596ZM141.893 58.4141L141.285 59.1914L139.71 57.9592L140.318 57.182L141.893 58.4141ZM140.677 59.9687L140.069 60.7459L138.494 59.5138L139.102 58.7365L140.677 59.9687ZM139.462 61.5232L138.854 62.3004L137.278 61.0683L137.886 60.291L139.462 61.5232ZM138.246 63.0777L137.638 63.8549L136.062 62.6228L136.67 61.8455L138.246 63.0777ZM137.03 64.6322L136.422 65.4095L134.847 64.1773L135.454 63.4L137.03 64.6322ZM135.814 66.1867L135.206 66.964L133.631 65.7318L134.239 64.9546L135.814 66.1867ZM134.598 67.7412L133.99 68.5185L132.415 67.2863L133.023 66.5091L134.598 67.7412ZM133.382 69.2957L132.774 70.073L131.199 68.8409L131.807 68.0636L133.382 69.2957ZM132.167 70.8503L131.559 71.6275L129.983 70.3954L130.591 69.6181L132.167 70.8503ZM130.951 72.4048L130.343 73.182L128.767 71.9499L129.375 71.1726L130.951 72.4048ZM129.735 73.9593L129.127 74.7365L127.552 73.5044L128.159 72.7271L129.735 73.9593ZM128.519 75.5138L127.911 76.2911L126.336 75.0589L126.944 74.2817L128.519 75.5138ZM127.303 77.0683L126.695 77.8456L125.12 76.6134L125.728 75.8362L127.303 77.0683ZM126.087 78.6228L125.479 79.4001L123.904 78.1679L124.512 77.3907L126.087 78.6228ZM124.872 80.1774L124.264 80.9546L122.688 79.7225L123.296 78.9452L124.872 80.1774ZM123.656 81.7319L123.048 82.5091L121.472 81.277L122.08 80.4997L123.656 81.7319ZM122.44 83.2864L122.136 83.675L120.561 82.4428L120.864 82.0542L122.44 83.2864ZM121.891 83.8986L121.475 84.168L120.389 82.4887L120.805 82.2192L121.891 83.8986ZM120.642 84.7069L119.808 85.2458L118.722 83.5664L119.555 83.0275L120.642 84.7069ZM118.975 85.7846L118.142 86.3235L117.056 84.6441L117.889 84.1052L118.975 85.7846ZM117.309 86.8623L116.476 87.4012L115.389 85.7218L116.223 85.183L117.309 86.8623ZM115.642 87.9401L114.809 88.4789L113.723 86.7995L114.556 86.2607L115.642 87.9401ZM113.976 89.0178L113.143 89.5566L112.057 87.8773L112.89 87.3384L113.976 89.0178ZM112.31 90.0955L111.476 90.6344L110.39 88.955L111.224 88.4161L112.31 90.0955ZM110.643 91.1732L109.81 91.7121L108.724 90.0327L109.557 89.4938L110.643 91.1732ZM108.977 92.2509L108.144 92.7898L107.058 91.1104L107.891 90.5716L108.977 92.2509ZM107.311 93.3287L106.477 93.8675L105.391 92.1882L106.224 91.6493L107.311 93.3287ZM105.644 94.4064L105.228 94.6758L104.141 92.9964L104.558 92.727L105.644 94.4064ZM104.992 94.7877L104.491 94.9495L103.876 93.0463L104.377 92.8845L104.992 94.7877ZM103.489 95.273L102.487 95.5966L101.873 93.6934L102.875 93.3699L103.489 95.273ZM101.486 95.9201L100.484 96.2437L99.8692 94.3405L100.871 94.0169L101.486 95.9201ZM99.4821 96.5672L98.4803 96.8908L97.8656 94.9876L98.8674 94.664L99.4821 96.5672ZM97.4785 97.2143L96.4767 97.5379L95.862 95.6347L96.8638 95.3111L97.4785 97.2143ZM95.4749 97.8614L94.4732 98.185L93.8585 96.2818L94.8603 95.9582L95.4749 97.8614ZM93.4714 98.5085L92.4696 98.8321L91.8549 96.9289L92.8567 96.6053L93.4714 98.5085ZM91.4678 99.1556L90.466 99.4791L89.8513 97.5759L90.8531 97.2524L91.4678 99.1556ZM89.4642 99.8027L88.4625 100.126L87.8478 98.223L88.8496 97.8995L89.4642 99.8027ZM87.4607 100.45L86.9598 100.612L86.3451 98.7084L86.846 98.5466L87.4607 100.45ZM86.698 100.659L86.1868 100.682L86.0958 98.6843L86.6069 98.661L86.698 100.659ZM85.1645 100.729L84.1422 100.775L84.0511 98.7775L85.0735 98.7309L85.1645 100.729ZM83.1199 100.822L82.0976 100.869L82.0065 98.8707L83.0288 98.8241L83.1199 100.822ZM81.0753 100.915L80.053 100.962L79.9619 98.9639L80.9842 98.9173L81.0753 100.915ZM79.0307 101.008L78.0084 101.055L77.9173 99.0571L78.9396 99.0105L79.0307 101.008ZM76.9861 101.102L75.9638 101.148L75.8727 99.1503L76.895 99.1037L76.9861 101.102ZM74.9415 101.195L73.9192 101.241L73.8281 99.2435L74.8504 99.1969L74.9415 101.195ZM72.8969 101.288L71.8745 101.335L71.7835 99.3366L72.8058 99.29L72.8969 101.288ZM70.8522 101.381L69.8299 101.428L69.7389 99.4298L70.7612 99.3832L70.8522 101.381ZM68.8076 101.474L68.2965 101.498L68.2054 99.4997L68.7166 99.4764L68.8076 101.474ZM68.0252 101.473L67.5268 101.357L67.9783 99.409L68.4767 99.5245L68.0252 101.473ZM66.5299 101.126L65.5331 100.895L65.9847 98.9469L66.9815 99.178L66.5299 101.126ZM64.5363 100.664L63.5395 100.433L63.991 98.4849L64.9879 98.7159L64.5363 100.664ZM62.5426 100.202L61.5458 99.9712L61.9974 98.0228L62.9942 98.2538L62.5426 100.202ZM60.549 99.7401L59.5522 99.5091L60.0037 97.5607L61.0006 97.7918L60.549 99.7401ZM58.5553 99.278L57.5585 99.047L58.0101 97.0986L59.0069 97.3297L58.5553 99.278ZM56.5617 98.816L55.5649 98.5849L56.0165 96.6366L57.0133 96.8676L56.5617 98.816ZM54.5681 98.3539L53.5712 98.1229L54.0228 96.1745L55.0196 96.4055L54.5681 98.3539ZM52.5744 97.8918L51.5776 97.6608L52.0292 95.7124L53.026 95.9435L52.5744 97.8918ZM50.5808 97.4298L49.584 97.1987L50.0355 95.2504L51.0323 95.4814L50.5808 97.4298ZM48.5871 96.9677L48.0887 96.8522L48.5403 94.9038L49.0387 95.0193L48.5871 96.9677ZM47.7907 96.7299L47.3732 96.4731L48.4208 94.7694L48.8383 95.0261L47.7907 96.7299ZM46.5381 95.9597L45.7031 95.4462L46.7506 93.7425L47.5857 94.256L46.5381 95.9597ZM44.868 94.9328L44.033 94.4193L45.0805 92.7156L45.9156 93.2291L44.868 94.9328ZM43.1979 93.9059L42.3629 93.3924L43.4104 91.6887L44.2455 92.2022L43.1979 93.9059ZM41.5278 92.879L40.6927 92.3655L41.7403 90.6618L42.5754 91.1753L41.5278 92.879ZM39.8577 91.8521L39.0226 91.3386L40.0702 89.6349L40.9053 90.1484L39.8577 91.8521ZM38.1876 90.8252L37.3525 90.3117L38.4001 88.608L39.2351 89.1215L38.1876 90.8252ZM36.5175 89.7983L35.6824 89.2848L36.73 87.5811L37.565 88.0946L36.5175 89.7983ZM34.8474 88.7714L34.0123 88.2579L35.0599 86.5542L35.8949 87.0676L34.8474 88.7714ZM33.1772 87.7445L32.3422 87.231L33.3897 85.5273L34.2248 86.0407L33.1772 87.7445ZM31.5071 86.7176L30.6721 86.2041L31.7196 84.5004L32.5547 85.0138L31.5071 86.7176ZM29.837 85.6906L29.0019 85.1772L30.0495 83.4735L30.8846 83.9869L29.837 85.6906ZM28.1669 84.6637L27.3318 84.1503L28.3794 82.4466L29.2145 82.96L28.1669 84.6637ZM26.4968 83.6368L25.6617 83.1234L26.7093 81.4197L27.5443 81.9331L26.4968 83.6368ZM24.8267 82.6099L24.4091 82.3532L25.4567 80.6495L25.8742 80.9062L24.8267 82.6099ZM24.1734 82.1519L23.8578 81.7834L25.3768 80.4823L25.6924 80.8509L24.1734 82.1519ZM23.2265 81.0463L22.5953 80.3093L24.1143 79.0083L24.7455 79.7453L23.2265 81.0463ZM21.964 79.5723L21.3327 78.8352L22.8517 77.5342L23.483 78.2712L21.964 79.5723ZM20.7015 78.0982L20.0702 77.3612L21.5892 76.0601L22.2205 76.7972L20.7015 78.0982ZM19.4389 76.6241L18.8077 75.8871L20.3267 74.5861L20.9579 75.3231L19.4389 76.6241ZM18.1764 75.1501L17.5451 74.413L19.0641 73.112L19.6954 73.849L18.1764 75.1501ZM16.9139 73.676L16.2826 72.939L17.8016 71.6379L18.4328 72.375L16.9139 73.676ZM15.6513 72.2019L15.02 71.4649L16.539 70.1639L17.1703 70.9009L15.6513 72.2019ZM14.3888 70.7279L13.7575 69.9908L15.2765 68.6898L15.9078 69.4268L14.3888 70.7279ZM13.1263 69.2538L12.495 68.5168L14.014 67.2157L14.6452 67.9528L13.1263 69.2538ZM11.8637 67.7797L11.2324 67.0427L12.7515 65.7417L13.3827 66.4787L11.8637 67.7797ZM10.6012 66.3057L10.2856 65.9371L11.8045 64.6361L12.1202 65.0046L10.6012 66.3057ZM10.0947 65.5977L9.94163 65.1301L11.8424 64.508L11.9954 64.9756L10.0947 65.5977ZM9.63556 64.195L9.32951 63.2599L11.2303 62.6377L11.5364 63.5729L9.63556 64.195ZM9.02344 62.3247L8.71739 61.3896L10.6182 60.7675L10.9242 61.7026L9.02344 62.3247ZM8.41132 60.4544L8.10527 59.5193L10.0061 58.8972L10.3121 59.8323L8.41132 60.4544ZM7.7992 58.5842L7.49315 57.649L9.39394 57.0269L9.69999 57.9621L7.7992 58.5842ZM7.1871 56.7139L6.88103 55.7788L8.78181 55.1567L9.08787 56.0918L7.1871 56.7139ZM6.57498 54.8436L6.26891 53.9085L8.16969 53.2864L8.47576 54.2215L6.57498 54.8436ZM5.96286 52.9734L5.65679 52.0382L7.55757 51.4161L7.86364 52.3512L5.96286 52.9734ZM5.35073 51.1031L5.04467 50.1679L6.94545 49.5458L7.25152 50.481L5.35073 51.1031ZM4.73861 49.2328L4.43255 48.2977L6.33333 47.6756L6.6394 48.6107L4.73861 49.2328ZM4.12649 47.3625L3.82043 46.4274L5.72121 45.8053L6.02728 46.7404L4.12649 47.3625ZM3.51437 45.4923L3.20832 44.5571L5.10909 43.935L5.41516 44.8702L3.51437 45.4923ZM2.90225 43.622L2.5962 42.6869L4.49698 42.0647L4.80304 42.9999L2.90225 43.622ZM2.29013 41.7517L1.98408 40.8166L3.88486 40.1945L4.19092 41.1296L2.29013 41.7517ZM1.67801 39.8814L1.37196 38.9463L3.27274 38.3242L3.5788 39.2593L1.67801 39.8814ZM1.06589 38.0112L0.759837 37.076L2.66062 36.4539L2.96668 37.3891L1.06589 38.0112ZM0.453769 36.1409L0.300742 35.6733L2.20153 35.0512L2.35456 35.5188L0.453769 36.1409ZM0.251457 35.337L0.264206 34.8317L2.26358 34.8822L2.25083 35.3875L0.251457 35.337ZM0.28972 33.8211L0.315233 32.8104L2.3146 32.8609L2.28909 33.8715L0.28972 33.8211ZM0.340746 31.7998L0.36626 30.7891L2.36563 30.8396L2.34012 31.8502L0.340746 31.7998ZM0.391773 29.7785L0.417287 28.7678L2.41666 28.8183L2.39114 29.829L0.391773 29.7785ZM0.4428 27.7572L0.468314 26.7465L2.46768 26.797L2.44217 27.8077L0.4428 27.7572ZM0.493827 25.7359L0.51934 24.7252L2.51871 24.7757L2.4932 25.7864L0.493827 25.7359ZM0.544854 23.7146L0.570367 22.704L2.56972 22.7544L2.54421 23.7651L0.544854 23.7146ZM0.59588 21.6933L0.621393 20.6827L2.62075 20.7331L2.59524 21.7438L0.59588 21.6933ZM0.646907 19.672L0.67242 18.6614L2.67178 18.7118L2.64626 19.7225L0.646907 19.672ZM0.697933 17.6507L0.723447 16.6401L2.7228 16.6905L2.69729 17.7012L0.697933 17.6507ZM0.74896 15.6294L0.774473 14.6188L2.77383 14.6692L2.74832 15.6799L0.74896 15.6294ZM0.799987 13.6081L0.825485 12.5975L2.82486 12.648L2.79934 13.6586L0.799987 13.6081ZM0.850998 11.5868L0.876512 10.5762L2.87588 10.6267L2.85037 11.6373L0.850998 11.5868ZM0.902025 9.56554L0.927539 8.55489L2.92691 8.60536L2.9014 9.61601L0.902025 9.56554ZM0.953052 7.54424L0.978565 6.5336L2.97793 6.58407L2.95242 7.59472L0.953052 7.54424ZM1.00408 5.52295L1.02959 4.5123L3.02896 4.56278L3.00345 5.57342L1.00408 5.52295ZM1.0551 3.50166L1.08062 2.49101L3.07999 2.54148L3.05447 3.55213L1.0551 3.50166ZM1.10613 1.48036L1.11888 0.975031L3.11825 1.0255L3.1055 1.53083L1.10613 1.48036Z" fill="black" fill-opacity="0.19"/>
</svg>
