<svg width="70" height="50" viewBox="0 0 70 50" fill="none" xmlns="http://www.w3.org/2000/svg">
<path id="Vector" d="M62.3517 28.0893V2.97167L61.3482 3.33147C61.3249 3.2945 61.2908 3.26297 61.2457 3.24449C60.8597 3.08414 60.5636 2.89889 60.2405 2.84012C60.2229 2.82436 60.2024 2.81093 60.1786 2.80101C59.7951 2.64202 59.4999 2.45774 59.1791 2.3978C59.1605 2.38048 59.1394 2.36531 59.114 2.3546C58.7287 2.19465 58.4331 2.00959 58.1102 1.95062C58.0919 1.93369 58.0712 1.91871 58.046 1.9084C57.6584 1.74766 57.3612 1.56124 57.0359 1.50325C57.0185 1.48768 56.9983 1.47445 56.9747 1.46472C56.5959 1.30749 56.3033 1.12593 55.9865 1.06385C55.967 1.04439 55.9444 1.02688 55.9164 1.0152C55.8266 0.978036 55.7422 0.939311 55.6605 0.90117V0L47.1104 3.0606C46.9018 2.96232 46.7106 2.87651 46.5091 2.83992C46.4914 2.82416 46.4712 2.81074 46.4475 2.80081C46.0641 2.64183 45.769 2.45754 45.4479 2.39761C45.4296 2.38029 45.4084 2.36492 45.3828 2.35441C44.9976 2.19445 44.7017 2.00939 44.379 1.95043C44.3604 1.9335 44.3395 1.91851 44.3144 1.9082C43.9268 1.74727 43.6295 1.56085 43.3042 1.50305C43.2866 1.48768 43.2666 1.47445 43.2431 1.46472C42.8644 1.30768 42.5719 1.12651 42.256 1.06405C42.2363 1.04439 42.2137 1.02688 42.1857 1.0152C42.0956 0.977841 42.0107 0.939117 41.9289 0.900976V0L33.5719 2.99151C33.4195 2.9236 33.2734 2.86775 33.1215 2.84012C33.1039 2.82436 33.0836 2.81074 33.0599 2.80081C32.6758 2.64163 32.3807 2.45715 32.0594 2.39761C32.0406 2.38029 32.0197 2.36511 31.9943 2.35441C31.6093 2.19445 31.3134 2.00959 30.9912 1.95043C30.9726 1.9335 30.9519 1.91851 30.9268 1.9082C30.5615 1.75681 30.2765 1.58303 29.9731 1.51473C29.9529 1.49449 29.9301 1.47639 29.9014 1.46452C29.523 1.30749 29.2302 1.12612 28.9143 1.06385C28.8946 1.0442 28.872 1.02688 28.844 1.0152C28.7539 0.977841 28.6695 0.939311 28.5876 0.90117V0.000194488L0.288013 10.1302V10.3003C0.241211 10.3171 0.19441 10.3338 0.147373 10.3505C0.0215501 10.3955 -0.0151377 10.4811 0.00532328 10.5636C0.00132516 10.6364 0.0415407 10.7086 0.147373 10.7524C0.186884 10.7687 0.224985 10.7853 0.262614 10.802L0.267552 35.3889L0.25885 46.2088L0.26967 46.2049L0.269905 47.0294L6.66031 49.658V49.6596L6.66219 49.659L6.66407 49.6596V49.6582L13.7913 47.1036L20.0016 49.658V49.6596L20.0034 49.659L20.0053 49.6596V49.6582L27.3423 47.0282V47.0294L33.7332 49.658V49.6596L33.7351 49.659L33.737 49.6596V49.6582L44.7532 45.7095C47.3233 48.1855 51.113 49.7615 55.4032 49.8333C63.2005 49.9639 69.3586 44.415 69.5114 38.1601C69.6177 33.8242 66.622 30.1035 62.3517 28.0893Z" fill="#A7A9AC"/>
</svg>
