<svg width="459" height="450" viewBox="0 0 459 450" fill="none" xmlns="http://www.w3.org/2000/svg">
<path d="M161.498 40.8375C190.593 -13.4298 268.407 -13.4298 297.502 40.8374L298.574 42.8378C312.307 68.4519 339.817 83.5966 368.804 81.5007L388.461 80.0794C444.672 76.0149 479.02 140.579 444.236 184.923C425.779 208.453 425.779 241.547 444.236 265.077C479.02 309.421 444.672 373.985 388.461 369.921L368.804 368.499C339.817 366.403 312.307 381.548 298.574 407.162L297.502 409.163C268.407 463.43 190.593 463.43 161.498 409.163L160.426 407.162C146.693 381.548 119.183 366.403 90.1957 368.499L70.5394 369.921C14.3276 373.985 -20.0198 309.421 14.7636 265.077C33.2209 241.547 33.2209 208.453 14.7636 184.923C-20.0198 140.579 14.3276 76.0149 70.5394 80.0794L90.1957 81.5007C119.183 83.5966 146.693 68.4519 160.426 42.8378L161.498 40.8375Z" fill="#CDC7AF" fill-opacity="0.25"/>
</svg>
