<svg width="120" height="121" viewBox="0 0 120 121" fill="none" xmlns="http://www.w3.org/2000/svg">
<path id="Ellipse 52" d="M102.426 103.279C113.283 92.4223 119.565 77.8164 119.978 62.468C120.392 47.1196 114.905 32.1967 104.648 20.7712C94.3914 9.34578 80.1447 2.28717 64.8408 1.04841C49.5369 -0.190346 34.3404 4.48502 22.3795 14.1121C10.4185 23.7392 2.6034 37.5853 0.542794 52.8004C-1.51781 68.0155 2.33292 83.4416 11.3023 95.9033C20.2717 108.365 33.6772 116.914 48.7593 119.79C63.8415 122.667 79.4524 119.652 92.3788 111.366L60 60.8528L102.426 103.279Z" fill="url(#paint0_linear_102_3220)"/>
<defs>
<linearGradient id="paint0_linear_102_3220" x1="102.426" y1="18.4264" x2="47.001" y2="141.5" gradientUnits="userSpaceOnUse">
<stop stop-color="#B7FFC0"/>
<stop offset="1" stop-color="white"/>
</linearGradient>
</defs>
</svg>
